<?xml version="1.0" encoding="utf-8"?>
<!-- Generator: Adobe Illustrator 19.0.0, SVG Export Plug-In . SVG Version: 6.00 Build 0)  -->
<svg version="1.1" id="layer" xmlns="http://www.w3.org/2000/svg" xmlns:xlink="http://www.w3.org/1999/xlink" x="0px" y="0px"
	 viewBox="-153 -46 652 652" style="enable-background:new -153 -46 652 652;" xml:space="preserve">
<style type="text/css">
	.st0{fill:#333E48;}
</style>
<path class="st0" d="M411.9,283.4L411.9,283.4c0.1,0,0.3,0.1,0.6,0.1c0.3,0,0.3,0.2,0.3,0.2l0.1,0.4c0,0,0.4,0.1,0.5,0.3
	c0.2,0.2-0.1,0.2-0.2,0.2c-0.1,0.1-0.4,0-0.4,0l0.2,0.4l-0.4,0.2l-0.6-0.2l0.2,0.3l-0.2,0.2c0,0-0.9-0.3-0.9-0.4
	c0-0.1-0.2-0.2-0.2-0.2l-0.7,0.1l0.1-0.3l0.7-0.2c0,0,0.5-0.2,0.6-0.2c0.1,0-0.5-0.2-0.5-0.3c0-0.1-0.2-0.2-0.2-0.2s-0.1,0-0.2,0
	c-0.2,0.1-0.4,0.2-0.6,0.3l0.2,0.1l-0.4,0.4c0,0-0.1,0.1-0.3,0.2c-0.3,0.1-0.5,0-0.7,0.1c0,0,0,0-0.1,0c-0.1,0.1-0.2,0.1-0.4,0.2
	l0.2-0.1c0,0,0.3,0,0.3,0c0,0,0.2,0.2,0.2,0.2s0.2,0.1,0.2,0.1c0,0-0.1,0.1-0.3,0.1c-0.2,0-0.4,0-0.5,0l-0.4,0.1l0.1-0.2
	c0,0-0.1,0-0.2,0c-0.8,0.5-1.6,1.1-2.4,1.7c0,0.1,0,0.2,0,0.2l0.4,0l0.6,0.2l0.2,0.1l0.5,0l-0.1,0.2l-0.1,0.3l0,0.3l0.2,0.1l0.4-0.3
	l0-0.4c0,0,0.4-0.1,0.6-0.2c0.2-0.1,0.5-0.4,0.5-0.4c0-0.1-0.1-0.3-0.1-0.3s0.3-0.2,0.4-0.3c0.1-0.1,0.1-0.4,0.1-0.4
	s-0.1-0.2,0.2-0.3c0.3,0,0.6,0,0.7,0c0.1,0,0.2-0.1,0.4,0c0.1,0,0.2,0.1,0.2,0.2l0.3,0l-0.2,0.3l-0.3,0.2l0.3,0.1l0.2,0.1l0.5-0.3
	l0.2-0.2c0,0,0,0.1,0,0.1c1.1-1.2,2.3-2.3,3.7-3.2l-0.3-0.5l-1,0C413.7,282.7,412.8,283,411.9,283.4 M405.5,290.5l0.2,0.1l0.7-0.1
	l0.6-0.2l0.2-0.3l-0.5,0.1l-0.2,0.2l-0.1,0l-0.7,0.1L405.5,290.5z M405.7,289l-0.3-0.1c0,0-0.3,0-0.3,0.1c-0.1,0.1-0.2,0.1-0.3,0.2
	c-0.1,0-0.5,0.2-0.5,0.2l0.1,0.1l0.4-0.1l0.5-0.1l0.2,0.2l0.4-0.1l0.3-0.1l-0.1-0.2L405.7,289L405.7,289z M405.7,289.6l-0.3,0
	l-0.5,0.3l-0.3,0.6l0.3,0l0.2-0.4l0.4-0.4l0.3,0l-0.4,0.3l0.3,0l0.2-0.1l0,0.2l0.3-0.1l0.2-0.4l-0.2-0.1L405.7,289.6z M410.6,288.3
	L410.6,288.3c-0.2,0-0.2,0-0.3,0.1c-0.1,0.1-0.2,0.2-0.2,0.2l-0.3,0.2l0.1,0l0.6-0.1C410.5,288.6,410.5,288.4,410.6,288.3
	 M408.5,311.5L408.5,311.5c0-0.2-0.1-0.5-0.2-0.6c-0.1-0.1-0.1-0.2-0.2-0.3l-0.1-0.2c0,0,0,0.1-0.1,0c-0.1-0.1-0.3-0.3-0.3-0.3
	l0-0.2l-0.1-0.5l0-0.2l0-0.8l-0.3-0.6l0-0.3c0,0,0-0.3,0-0.3l0.2-0.4l-0.1-0.1v-0.1l0-0.2c0,0,0-0.2,0-0.3c0,0,0-0.1,0-0.2
	c-1.8-0.2-3.6-0.4-5.5-0.7C403.4,307.5,405.6,309.7,408.5,311.5 M400,298.3c0,2.2,0.6,4.2,1.6,6.1c1.8,0.3,3.7,0.5,5.7,0.8l0-0.4
	c0,0-0.1-0.1-0.2-0.2c-0.1-0.1,0,0-0.1-0.1c-0.1-0.1-0.5-0.3-0.5-0.3s-0.4-0.2-0.5-0.3c-0.1-0.1-0.3-0.1-0.4-0.2
	c-0.1-0.1-0.1-0.2-0.1-0.2s-0.5-0.8-0.6-0.9c-0.1-0.1-0.2-0.2-0.2-0.3c0-0.1-0.3-0.3-0.3-0.4c0,0-0.3-0.2-0.3-0.2s-0.1-0.2-0.1-0.3
	c0-0.1,0.1-0.2,0.2-0.3c0-0.1,0-0.2,0-0.2c0-0.1,0-0.1,0-0.2c0-0.1,0-0.1,0-0.2c0-0.1,0.5-0.5,0.5-0.5c0-0.1,0.2-0.2,0.3-0.3
	c0.1-0.1,0.2-0.3,0.2-0.3c0-0.1,0.1-0.4,0-0.5c-0.1-0.1-0.3-0.5-0.3-0.5l-0.2-0.2l-0.2,0c0,0-0.1,0.1-0.1,0.1c0,0,0,0.1,0,0.1
	l-0.1,0.1l-0.2,0l-0.2-0.1l-0.2-0.1l-0.2-0.2L403,298l-0.1-0.3l-0.3-0.3l-0.1-0.1l-0.2,0l-0.2,0l-0.3-0.1l-0.2,0l-0.2-0.2l-0.4-0.3
	l-0.3,0c0,0-0.2,0.1-0.3,0.1l-0.2,0C400,297.2,400,297.7,400,298.3 M408.5,290.5C408.5,290.5,408.4,290.5,408.5,290.5
	c0.3,0,0.6,0,1,0c0.1-0.3,0.3-0.6,0.4-0.9l-1,0.5C408.9,290,408.5,290.5,408.5,290.5z M428,285c0.2,0,0.2,0,0.2,0l0-0.2l0.3,0l0-0.1
	l0.3-0.1c-0.1-0.1-0.1-0.2-0.2-0.3l-0.3,0.2c0,0-0.4-0.1-0.5-0.1c0,0-0.3,0.1-0.3,0.1l0.1,0.2C427.7,284.8,427.9,285,428,285
	 M430.3,290.5L430.3,290.5c-0.3-0.1-0.6-0.1-0.9-0.1l0.4,0.1C429.8,290.5,430.3,290.5,430.3,290.5z M428,290.4c0,0,0.1,0,0.2,0
	c-0.2,0-0.4,0-0.6,0l0,0.1H428 M429.5,293.6L429.5,293.6c-0.2-0.1-0.2,0.1-0.2,0.1l0.5,0.8l0.1,0.3l0.3,0.4c0,0,0.1,0.2,0.1,0.3
	c0,0.1,0.2,0.4,0.2,0.4s0,0.2,0.1,0.3c0.1,0.1,0.5,0.7,0.6,0.8c0.1,0.1,0.2,0.1,0.5,0.2c0.3,0.2,0.3,0.3,0.3,0.3l0,0.1l0.3,0.2
	c0-0.2,0-0.3,0-0.5l-0.1,0c-0.2,0-0.2-0.1-0.2-0.2c0-0.1-0.2-0.3-0.2-0.5c0-0.2-0.2-0.5-0.2-0.5s-0.2-0.1-0.2-0.3
	c0-0.1-0.2-0.2-0.3-0.3c-0.1-0.1-0.2-0.1-0.2-0.3c0-0.2-0.1-0.3-0.2-0.5c-0.1-0.2-0.3-0.2-0.3-0.2s0-0.1-0.1-0.2
	c-0.2-0.3-0.3-0.5-0.5-0.8C429.6,293.6,429.5,293.6,429.5,293.6 M433,290.8l0.1-0.1l-0.1-0.1l0,0c-0.4,0-0.7,0-1.1-0.1l0.1,0.2
	l0.2,0.1l-0.2,0.1v0.4l0.1,0.3c0,0,0.1,0,0.2,0c0,0,0.1,0.1,0.1,0.1s0.2,0.1,0.3,0.1c0.1,0,0.1,0,0.1,0c0.1,0,0.4-0.1,0.4-0.1
	s-0.1-0.2-0.1-0.2l0-0.2l0-0.1l-0.1-0.1l0-0.1v-0.1l-0.1,0l0-0.1v-0.1C432.7,290.7,433,290.8,433,290.8z M447.2,292.6
	c0.1,0,0.2,0.1,0.2,0.1s0.1,0.2,0.2,0.2c0.1,0,0.2,0.2,0.2,0.2l0.1,0.1l-0.3,0l0.1,0l0.1,0.2l0,0.1l0.1,0c0,0,0,0.1-0.1,0.3
	c-0.1,0.2,0,0.5-0.2,0.8l0,0c0.3,1.1,0.5,2.2,0.5,3.4l0.1-0.1l0-0.1l0.1-0.1v0.2l-0.1,0.2l-0.2,0.1v0.2c0,0.2,0,0.4,0,0.6l0.1,0
	l0.2,0.1l-0.2,0l0,0.1l-0.1,0l0,0c0,0.1,0,0.2,0,0.3l0,0.1l0.2,0.1l0,0.1h-0.2l-0.1,0.2l0,0.2l-0.1,0.1c-0.1,0.5-0.2,1-0.3,1.4
	c0.1,0,0.2,0,0.3,0c0.2,0,0.3,0,0.4,0c0.1,0,0.4,0,0.5,0c0.1,0,0.1,0.1,0.1,0.1l-0.4,0.1l-0.9,0.1l-0.1,0c-0.2,0.8-0.5,1.5-0.9,2.3
	c0.8-0.1,1.5-0.3,2.2-0.4l0,0c0,0,0.2-0.1,0.2-0.1s0.1-0.2,0.3-0.3c0.2-0.1,0.3-0.2,0.4-0.3c0.1-0.1,0.3-0.1,0.4-0.1
	c0.1,0,0.1,0.2,0.1,0.2l0.3-0.1c0,0-0.1,0,0-0.1c0.1-0.1,0.3-0.4,0.3-0.4l0.4,0l0-0.2l0.9,0.2l-0.2,0.3l-0.2,0.2l0.2,0.2l0,0
	c0.4-0.1,0.7-0.2,1.1-0.3v-0.3l0.3-0.5l0.1,0.1l0.2,0.5c0.5-0.2,1-0.3,1.4-0.4c0.6-1.3,0.9-2.7,0.9-4c0-1.5-0.3-3-1-4.3
	c-1.5-0.5-3-0.9-4.5-1.2l0,0.1l-0.1,0l-0.1-0.2c-0.1,0-0.1,0-0.1,0l-0.3,0l-0.2,0.1l-0.2-0.1l0.1-0.1c-0.2,0-0.4-0.1-0.7-0.1
	c0,0,0,0.1-0.1,0.1c0,0.1-0.4,0.1-0.4,0.1l-0.1-0.1c0,0,0-0.1,0-0.2l0,0c-0.4-0.1-0.8-0.1-1.1-0.2l-0.2,0.2
	C447,292.5,447.1,292.5,447.2,292.6 M448.9,302.4l-0.2-0.1l0.2-0.1l0.2,0.2L448.9,302.4L448.9,302.4z M455.1,301.1l0.4,0l0.4-0.2
	l0,0l-0.1,0.2l-0.2,0.1L455.1,301.1L455.1,301.1L455.1,301.1L455.1,301.1z M451.5,300.1l0.5,0.2l0,0.1l0.2,0.2l0.1,0.1l0.3-0.2
	l0.3-0.2l0.1,0.1l0.6,0.1l0.7,0.3l0.3,0.2l0,0.1l0.5,0.1l0,0.2l-0.2,0.1l0.1,0l0.2,0.3l0.2,0.1l0.1,0.2l-0.2-0.1l-0.4-0.1l-0.2-0.4
	l-0.3-0.1l-0.3,0.2l0.1,0.1l-0.2,0.1l-0.4-0.1l-0.3,0l-0.3-0.1l0,0l0.3-0.1l-0.1-0.2l-0.2-0.3l-0.3-0.1l-0.5-0.2l-0.2,0.1l0-0.2
	l0.2-0.2l-0.2,0l-0.2-0.2h-0.2l0-0.2L451.5,300.1L451.5,300.1z M449.1,300.4l0.2-0.2l0.1,0l-0.2,0.3l0.1,0.3l0.2,0.1v0.2l-0.3-0.2
	l-0.1-0.3l-0.2,0.1l0,0.3l0,0.3l-0.2,0l0-0.3l-0.2-0.3l0.1-0.4l0.2-0.4l0.4-0.1l0.3-0.1l0.1,0l-0.3,0.2l-0.4,0l-0.1,0.3L449.1,300.4
	L449.1,300.4z M448.7,297.2l0.2,0l0,0.1l-0.1,0.1l-0.1-0.1L448.7,297.2L448.7,297.2z M449.3,297.8l-0.2,0.1v-0.3l0-0.1l0.3,0.1
	L449.3,297.8z M449.4,297.8L449.4,297.8l0,0.2l0,0.1h-0.1l0-0.2L449.4,297.8z M449.7,302.3l-0.1-0.1l0.5-0.3l0,0l0.1,0.1
	L449.7,302.3z M450.1,298.2L450.1,298.2l0.1,0.1l0,0.2l-0.1,0.1l-0.1-0.1l-0.1,0.1l0.1,0.1l-0.1,0.1h-0.1l-0.2-0.2l0-0.1l0-0.1
	l-0.1,0l-0.2,0l-0.1,0.2h-0.1l0.1-0.2l0.1,0l0-0.1l0.2,0l0,0.1l0.2-0.1l0-0.1l0.1-0.1l-0.1-0.1l0.2,0.1L450.1,298.2z M449.8,297.8
	L449.8,297.8l-0.2-0.1l0.1-0.1l-0.1-0.1l0.1-0.1l0.1,0.1l0,0.1l-0.1,0.1C449.8,297.7,449.8,297.8,449.8,297.8z M449.6,292.9l0.2,0.1
	l0.1,0.2l0,0.3l-0.2,0l0-0.3l-0.2-0.1l-0.1-0.1L449.6,292.9z M449.1,297l0.2,0.1l0.2,0.2l-0.1,0.1h-0.1l-0.1-0.2l-0.2,0L449.1,297
	L449.1,297L449.1,297z M448.7,296l0.2,0.2l0,0l0.1,0.2l-0.1,0.2l-0.1,0.1l0,0.2l0.1,0.1l0,0.2l-0.1,0.1l-0.1-0.2l-0.1,0l-0.1,0
	l-0.1-0.3l0.1,0l0-0.4l0-0.1L448.7,296L448.7,296z M448.3,294.7L448.3,294.7l0.2,0l0,0.1l-0.1,0.4l-0.1,0.1l-0.2-0.2l0-0.2
	L448.3,294.7L448.3,294.7z M429.6,289.7l-0.3-0.2c0,0,0.4-0.4,0.3-0.4c-0.1,0-0.9,0.1-0.9,0.1l0.1,0.3l-0.3,0.1l-0.1-0.1l0-0.1
	l-0.5,0l-0.1,0.2l-0.3,0.3l0,0.2c0.8,0,1.7,0,2.5,0.1C429.9,289.9,429.6,289.7,429.6,289.7z M452.9,303.6c0,0-0.1,0-0.2,0l0,0
	C452.8,303.7,452.9,303.6,452.9,303.6 M410.2,282.6c0.1,0,0.2,0,0.2,0c0,0,0.1,0,0.1-0.1C410.5,282.6,410.3,282.6,410.2,282.6
	 M411.1,282.6l1.1-0.1v0.2c0.7-0.3,1.4-0.5,2.1-0.7l0,0l0.6-0.2c-0.6,0.1-1.2,0.2-1.8,0.3l-0.5,0.4l-0.4-0.2c-0.2,0-0.5,0.1-0.7,0.1
	L411.1,282.6z M396.9,288.2L396.9,288.2c0-0.1-0.1-0.6-0.1-0.6l-0.3-0.2c0,0-0.4-0.2-0.4-0.2c-0.1,0-0.4,0-0.4,0l-0.2,0
	c-4.5,2.5-7.6,5.7-8.4,9.2c1-1,2.8-1.9,5.2-2.7C393.3,291.6,394.9,289.8,396.9,288.2 M392.2,302.8c-2.4-0.8-4.1-1.7-5.1-2.7
	c1.5,6.9,11.6,12.7,25.2,14.8C402.4,312.9,394.8,308.3,392.2,302.8 M396.7,289l0.2,0.1c0,0,0.2,0,0.2-0.1c-0.1,0-0.2-0.1-0.2-0.1
	l0.1-0.1C396.9,288.8,396.8,288.9,396.7,289 M410.4,313.2c0,0,0.3,0.2,0.3,0.3c0,0.1,0.4,0.3,0.4,0.3s-0.4,0-0.6-0.1
	c-0.2-0.1-1-0.6-1.1-0.6c-0.1-0.1-0.6-0.6-0.8-0.8c-0.1-0.1-0.1-0.1-0.1-0.2c-3.2-1.9-5.7-4.4-7.3-7.2c-3.3-0.5-6.2-1.2-8.5-1.9
	c3.1,5.9,11.8,10.5,22.9,12.1C413.9,314.6,412.1,313.9,410.4,313.2L410.4,313.2z M454.2,303.8c0,0.1,0.1,0.2,0.2,0.2
	c0.2-0.3,0.4-0.7,0.6-1.1c-0.3,0.1-0.6,0.2-0.9,0.3l0,0.1C454.2,303.5,454.1,303.6,454.2,303.8 M396.8,289.3l-0.2-0.2
	c-1.6,1.3-2.8,2.7-3.7,4.3c0.9-0.3,1.8-0.5,2.8-0.8c-0.1,0-0.1-0.1-0.1-0.1l-0.1-0.6l0-0.3c0,0,0.1-0.6,0.4-0.8
	c0.2-0.2,0.7-0.7,0.9-0.9c0.2-0.2,0.2-0.4,0.2-0.4l0.1,0L396.8,289.3L396.8,289.3z M397,293.3c-0.1-0.1-0.2-0.1-0.2-0.1
	s-0.2,0.2-0.2,0.2c0,0.1,0.2,0.4,0.2,0.4l0,0.2l0.2,0.4l0,0.3c0,0,0.1,0.1,0.1,0.1c0,0.1,0.1,0.1,0.1,0.2l0.1,0.1l-0.2,0l-0.3-0.3
	l-0.1-0.1l0.1-0.2c0,0-0.1-0.1-0.1-0.2c0,0-0.1-0.1-0.2-0.2c-0.1-0.1-0.3-0.1-0.3-0.1l0.2-0.1l0-0.1c0,0-0.1-0.1-0.1-0.1v-0.2
	l-0.2-0.4l0-0.1c-1.3,0.3-2.5,0.6-3.6,1c-0.7,1.4-1,2.8-1,4.3c0,1.4,0.3,2.8,0.9,4.1c2.3,0.8,5.2,1.4,8.5,2c-1-1.9-1.4-3.9-1.5-6
	c0-0.6,0-1.2,0.1-1.9c-0.2-0.1-0.2-0.1-0.3-0.1c-0.1,0-0.3-0.1-0.3-0.1s-0.1-0.1-0.1-0.1c-0.1,0-0.2,0-0.3-0.1l-0.3-0.1l-0.2-0.2
	l0-0.1l0.2-0.2l-0.1-0.3c0,0-0.4-0.3-0.4-0.4c-0.1-0.1-0.1-0.1-0.2-0.2c0,0-0.2-0.1-0.2-0.2c0-0.1,0,0,0-0.1c0-0.1-0.2-0.3-0.2-0.3
	s-0.2-0.3-0.3-0.4C397,293.5,397.1,293.4,397,293.3 M400.2,285.1l0.8-0.2c0,0,0.9-0.2,1-0.2c0,0,0.1,0.1,0.1,0.1l0.5-0.1l0.2-0.1
	l0.3,0c0.3-0.2,0.7-0.3,1-0.4c-0.1,0-0.2,0.1-0.4,0.2c-0.4,0.1,0.1-0.2-0.4-0.2c-0.1,0,0.2-0.2,0.5-0.3c0.3-0.1,0.2-0.1,0.8-0.2
	c0.6-0.1,0.6,0.1,0.6,0.1s0.1,0,0.1,0c2-0.8,4.1-1.4,6.3-1.9c0,0,0.1,0,0.1,0s0.1,0,0.2-0.1c-4.4,0.7-8.4,1.8-11.8,3.2
	c0,0,0.1,0,0.1,0C400,285.1,400.2,285.1,400.2,285.1 M422.8,281.4c0,0-0.7,0.5-0.8,0.5c-0.1,0.1-0.2,0.6-0.2,0.7
	c0,0.1-0.1,0.4-0.1,0.4s-0.7,0.3-1,0.4c-0.3,0.1-0.6,0.4-1,0.6c-0.1,0.1-0.2,0.1-0.4,0.1c-1,1.5-1.9,3.5-2.5,5.9
	c1.1,0,2.2-0.1,3.2-0.1l-0.1-0.3l0.2,0l0.1-0.2l0.2,0l0.2,0l0.2,0l0.5,0c0.2,0,0.2-0.1,0.2-0.1l0-0.4l-0.1-0.3l-0.2-0.2l-0.4-0.2
	l0-0.1l0.2,0l0.1,0.1l0.3-0.1l-0.1-0.2l0.3,0l0.2-0.1l0.3-0.2c0,0,0.2-0.1,0.3-0.3c0.1-0.2,0.5-0.2,0.5-0.2l0.3-0.1l-0.1-0.2
	l-0.1-0.2l-0.1-0.1l0.4-0.2l0.1,0.3l-0.1,0.3l0.2,0V286l0-0.1l-0.4,0.1c0,0-0.3,0-0.4,0c-0.1,0-0.2-0.2-0.2-0.2s0-0.3,0-0.4
	c-0.1-0.2,0.1-0.2,0.2-0.3c0.2-0.1,0.2-0.1,0.4-0.2c0.2-0.1,0.4-0.3,0.4-0.4l0.1-0.1V281c-0.2,0-0.3,0-0.5,0.1L422.8,281.4
	L422.8,281.4z M420.6,286.9c0,0-0.1,0.1-0.1,0.1l0.1,0.3l0,0.1l-0.2,0l-0.2,0.1l-0.2,0l-0.2-0.1l0-0.1l0.2-0.1l0-0.1l-0.1,0l0.1-0.2
	l0.2,0l0-0.2l0.2-0.1l0.2,0.1l0.1,0l0,0.1C420.6,286.7,420.6,286.8,420.6,286.9 M422,287.5l-0.2,0.1l0.2,0.1l0,0.1l-0.5,0.1l-0.3,0
	l-0.2,0l-0.3,0l0.1-0.1l0.1-0.1c0,0,0.1-0.1,0.1-0.1h0.2l0.1-0.1c0,0-0.2,0-0.2,0h-0.2l0-0.1l0.2-0.1v-0.1l-0.1-0.1l0.1-0.1l0.2,0.1
	l0.1-0.2l-0.1-0.1l0-0.1c0,0-0.1,0.1-0.2,0c-0.1,0-0.1-0.1-0.1-0.1l0.1-0.1c0,0,0-0.1-0.1-0.1c0,0-0.2,0-0.2,0l0.1-0.2l-0.1-0.1
	l0-0.2l0.1-0.1l0.1,0.1l0.1-0.2l0.1,0h0.2l0,0.1L421,286l0.1,0l0.2,0l0.2,0.1l-0.1,0.2c0,0-0.2,0.1-0.2,0.1c0,0,0,0.1,0,0.1h0.2
	c0,0,0.1,0,0.1,0.1c0,0.1,0,0.1,0.1,0.2c0.1,0,0.1,0.1,0.1,0.2l0.1,0.1c0,0,0.1,0.1,0.1,0.1l0,0.1l0,0.1l0.1,0.1l0.1-0.1l0.1,0.1
	L422,287.5L422,287.5z M451.7,287.9l0.2,0l0.2,0.1l0.2,0.1l0,0.1l0,0.1l0.2,0.1l0,0.1l-0.1,0.1l0.1,0.1l-0.1,0.1l0.2,0.2l-0.1,0.1
	c1.4,1.3,2.6,2.7,3.3,4.2c2.4,0.8,4.2,1.7,5.2,2.7c-0.8-3.4-3.7-6.4-8-8.9c-0.1,0.1-0.2,0.2-0.2,0.2v0.1l-0.2-0.1
	c-0.1-0.1-0.4,0-0.4,0v0.1l-0.2-0.1l-0.1,0.1l-0.2,0c0,0,0.1,0.2,0.1,0.2C451.6,287.8,451.7,287.9,451.7,287.9 M423.2,289.8
	l-0.4-0.1l-0.4,0.1l0,0.1c0.4,0,0.8,0,1.3,0v-0.3l-0.2-0.1L423.2,289.8L423.2,289.8z M414,306.3c-0.1,0-0.3,0.1-0.3,0.1
	c-0.1,0.1-0.6,0.3-0.6,0.4c-0.1,0.1,0.1,0.4,0,0.5c0,0.1-0.1,0.2-0.2,0.3c0,0-0.2,0.1-0.2,0.1s0.1,0-0.1,0.1
	c-0.1,0.1-0.2,0.1-0.2,0.2c0,0.1-0.2,0.4-0.2,0.4s0,0.1-0.1,0.2c-0.1,0.1-0.1,0.2-0.2,0.3c-0.1,0-0.2,0.1-0.3,0l-0.1,0
	c1.7,2.4,3.9,4.3,6.5,5.5c0.4-0.2,0.8-0.2,1.2-0.2c0.2,0,0.4-0.1,0.6-0.1c-1.6-1.7-2.9-4.4-3.7-7.7
	C415.5,306.3,414.7,306.3,414,306.3 M421.8,290.5l0.1,0.3l-0.1,0.1l-0.2,0.2l-0.2,0.2H421l-0.2,0.2l-0.2-0.2l-0.2-0.2l-0.2,0
	l-0.2-0.1v-0.2l-0.1-0.2l0.1-0.4c-1.1,0-2.2,0.1-3.3,0.1c-0.6,2.6-0.9,5.2-0.9,7.8c0,1.3,0.1,2.5,0.2,3.7c0.1,0.1,0.2,0.3,0.2,0.4
	c0,0.1,0,0.3-0.1,0.4c0.1,1.1,0.3,2.1,0.6,3.1c2.3,0.1,4.7,0.2,7.1,0.2v-6.5l0,0c-0.1,0-0.2-0.4-0.4-0.5c-0.2-0.1-0.8,0.3-0.8,0.3
	s-0.3,0.2-0.6,0.2c-0.2,0-0.3,0-0.3,0l-0.5,0c0,0-0.3,0.2-0.4,0.2c-0.1,0-0.3-0.1-0.4-0.3c0-0.1-0.6-0.5-0.6-0.5s-0.3-0.3-0.3-0.4
	c0-0.1-0.3-0.4-0.4-0.5c0-0.1-0.3-0.2-0.4-0.3c-0.1-0.2-0.1-0.2-0.1-0.4c0-0.2-0.2-0.4-0.2-0.4l0.2-0.3c0,0,0.1-0.5,0-0.7
	c0-0.2-0.1-0.2-0.1-0.3c0-0.1-0.2-0.2-0.2-0.6c0-0.3,0.2-0.5,0.2-0.5s0.2-0.4,0.3-0.5c0.1-0.1,0.3-0.6,0.4-0.6
	c0.1,0,0.5-0.1,0.6-0.5c0-0.1,0-0.2,0.1-0.2l0-0.2l0-0.2c0.1-0.1,0-0.1,0.1-0.2c0.1-0.1,0.2-0.2,0.3-0.2c0.1,0,0.3-0.3,0.3-0.3
	l0-0.2l0.2,0l0.2,0.1l0.4,0l0.3-0.1l0.2-0.1c0,0,0.2-0.1,0.3-0.2c0.1,0,0.4,0.2,0.8,0c0.4-0.1,0.3,0,0.3,0l0.3,0.1v-1
	c-0.6,0-1.2,0-1.7,0L421.8,290.5z M411.4,309.6c0,0.1-0.1,0.2-0.2,0.3c-0.2,0-0.4,0.1-0.5,0.1c-0.1,0-0.3,0-0.3,0s0,0.2,0,0.3
	c0,0.1,0.1,0.1,0.1,0.2c-0.1,0.1-0.2,0.1-0.2,0.1l-0.3-0.1c0,0-0.1,0-0.1,0.1c0,0.1,0.1,0.2,0.1,0.2l0.2,0.1l-0.1,0.1l-0.1,0.1
	l0.1,0.2l0,0.2c0,0-0.2,0.1-0.2,0.1c0,0.1,0,0.3,0.1,0.3c0.1,0,0.3,0.1,0.3,0.1l0.1,0.2l0,0.2c0,0-0.1,0.1-0.1,0.2c0,0,0,0.1,0,0.2
	c2.2,1.1,4.6,1.9,7,2.4c0.1-0.1,0.3-0.1,0.4-0.2C415.2,313.5,413.1,311.8,411.4,309.6 M420.5,314l1.3,0l1,0.5l0.9,0.1v-8.1
	c-2.4,0-4.7-0.1-7-0.2C417.5,309.7,418.9,312.4,420.5,314 M391.9,302.1c-0.5-1.2-0.8-2.5-0.8-3.8c0-1.4,0.3-2.8,0.9-4.1
	c-2.6,0.9-4.4,1.9-5.1,3c0,0.4-0.1,0.7-0.1,1.1c0,0.3,0,0.6,0,0.8C387.6,300.2,389.3,301.2,391.9,302.1 M425.5,305.5
	c-0.1-0.1,0-0.3,0-0.4c0-0.1,0-0.6,0-0.7c0-0.2,0.2-0.4,0.2-0.6c0-0.2,0-0.3-0.1-0.5c-0.1-0.2,0-0.2-0.1-0.5c-0.1-0.2-1-1.6-1-1.6
	l-0.2-0.2c0,0,0.2-0.2,0.2-0.3c0.1-0.1-0.1-0.2-0.1-0.3c0-0.1,0.1-0.2,0.1-0.3c0.1-0.2-0.1-0.3-0.3-0.4c-0.1,0-0.1,0-0.2,0v6.5
	c0.6,0,1.1,0,1.7,0C425.8,305.8,425.6,305.5,425.5,305.5 M424.8,292.4l0.3,0.1l0.1,0.3l0.3,0.1l0.4,0.2l0.2-0.2l0-0.2l0.1-0.1
	l0.4-0.1l0.4,0.2l0.3,0.1c0,0,0.2,0,0.3,0c0.1,0,0.4,0.1,0.4,0.1c0.1,0,0.2,0,0.2,0l0.2-0.1l0.3,0.1l0.3,0l0.2-0.1l0.1-0.2l0.1-0.3
	l0.1-0.2c0,0,0-0.2,0-0.2l-0.1-0.1c0,0,0-0.1,0-0.1l0-0.2l-0.1,0.1l-0.2-0.1l-0.2,0.2c0,0-0.2,0-0.3,0c-0.1,0-0.1-0.1-0.1-0.2
	c0-0.1-0.3-0.1-0.3-0.1l-0.1,0.1l-0.2,0l-0.1-0.1l-0.3,0l-0.4-0.3v-0.3c0,0-0.1-0.1-0.1-0.2c0-0.1-0.1-0.2-0.1-0.2l-0.2,0l-0.1,0.1
	l-0.2,0l-0.2,0v0.2l0.3,0.3l-0.1,0.2v0.3l-0.1,0l-0.2-0.1l-0.2-0.2l0-0.1l-0.2-0.2l-0.2-0.4l0-0.1h-0.5c0.1,0,0.3,0.2,0.3,0.2v0.1
	l-0.1-0.1c0,0-0.1-0.1-0.1-0.1c-0.1,0-0.1,0.1-0.1,0.1c0,0,0,0.1,0,0.1c0,0,0.1,0,0.1,0.1v0.1l-0.1,0l0,0.1l-0.1,0.1h-0.1l0-0.1
	l0.1-0.1l0,0l0,0l-0.1-0.3l-0.4-0.3l0,0h-0.5v1.4l0,0.1l0,0v0.3c0.1,0.1,0.3,0.3,0.4,0.3C424.6,292.4,424.8,292.4,424.8,292.4
	 M429,291.8l0.1,0L429,291.8l0,0.1l-0.1,0.1l-0.1,0l-0.1-0.1L429,291.8 M426.8,291.7l0.4,0.1l0.1,0.1h0.1v0.1h-0.3L426.8,291.7
	L426.8,291.7z M425.1,314.6c0.3-0.2,1.7-0.7,1.7-0.7s0.2,0,0.5,0.1c1.6-1.6,3-4.3,3.8-7.7c-0.2,0-0.4,0-0.6,0c0,0.1,0,0.1,0,0.2
	c-0.1,0.1-0.2,0.1-0.3,0.1c-0.1,0-0.2,0.3-0.2,0.3s0.1,0.3,0,0.4c0,0.1-0.1,0.2-0.2,0.4c-0.2,0.1-0.6,0.6-0.8,0.9
	c-0.2,0.2-0.5,0.4-0.9,0.4c-0.4,0-0.8,0.3-0.8,0.3l-0.3-0.5c0,0,0-0.3,0-0.4c0-0.1-0.3-0.5-0.4-0.7c-0.1-0.2-0.4-0.6-0.4-0.7
	c-0.1-0.2-0.1-0.4-0.1-0.6c0,0,0-0.1-0.1-0.2c-0.6,0-1.2,0-1.9,0v8.2C424.4,314.8,424.9,314.8,425.1,314.6 M425.9,313.3l0.2,0.3
	l-0.7,0.3l-0.2-0.5C425.2,313.5,425.9,313.3,425.9,313.3z M424.8,289.5c0,0-0.3-0.3-0.3-0.4c0-0.1-0.2,0-0.2,0.1c0,0,0,0.2,0,0.2
	c0,0.1,0.2,0.2,0.3,0.2c0.1,0.1,0.1,0.1,0.1,0.1c0,0,0.1,0.1,0.1,0.1h0.6L424.8,289.5 M415.2,303.8c0,0-0.1,0.2-0.1,0.2
	c0,0,0,0.5,0,0.6c0,0.1-0.2,1-0.3,1.2c0.4,0,0.9,0,1.3,0.1c-0.2-0.8-0.4-1.7-0.5-2.5c-0.1,0.1-0.2,0.2-0.2,0.2
	C415.4,303.6,415.3,303.8,415.2,303.8 M431.8,282.7l0.2,0.1l-0.1,0c0.7,0.5,1.4,1,2.1,1.6l0-0.1c0,0,0.1-0.6,0-0.8
	c0-0.2,0.3-0.1,0.6-0.2c0.2,0,0.6-0.2,1-0.2c-2.2-0.9-4.6-1.5-6.9-1.9c1,0.4,2,0.8,3,1.4L431.8,282.7L431.8,282.7z M425.5,283.5
	l1.3,0c0,0,0.1,0.2,0.2,0.2c0.2,0,1.5,0.5,1.5,0.5l0.2,0.1c-1.3-2-2.8-3.2-4.5-3.3v2.8c0.1-0.1,0.1-0.1,0.3-0.1
	C424.8,283.7,425.5,283.5,425.5,283.5 M424.8,287l0.4,0l0.3-0.1l0-0.2l0-0.2l0.2-0.2c0,0,0.1,0,0.1,0c0,0,0-0.3,0-0.3h0.9
	c0.1,0,0.5-0.2,0.6-0.3c0.2,0-0.1-0.3-0.1-0.3l-0.5,0.2l-0.9,0.2l-0.4-0.2l0-0.2c0,0-0.2-0.3,0-0.3c0.2-0.1,0.4-0.4,0.4-0.4
	l-0.4-0.2l-0.3,0.1l0.1,0.2l-0.2,0.2l-0.4,0.3l0,0.4l0.4,0.3l-0.3,0.4l-0.4,0.4l-0.3,0v0.4l0.2,0.1L424.8,287L424.8,287z
	 M429.3,284.5l0.5-0.1c0,0,0.9,0,1.4-0.1c0.5-0.1,0.3-0.3,0.3-0.3l1,0.1l0-0.2c-0.4-0.3-0.8-0.6-1.2-0.8l0,0l-0.5,0.5l0.2,0.3
	l-0.3,0.1l-0.6-0.5l0.6-0.6l0.2,0c-1.4-0.8-3-1.3-4.6-1.6C427.4,281.9,428.4,283,429.3,284.5 M415.5,285v-0.6c0-0.1,0.2-0.4,0.2-0.4
	s0.1-0.3,0.2-0.3c0.1,0,0-0.1-0.1-0.2c-1.2,0.8-2.3,1.9-3.3,3c0,0.1,0,0.2-0.1,0.3c-0.1,0.1,0.3,0.2,0.3,0.2c0.1,0,0.1,0.1,0.2,0.2
	l-0.4,0.1l0.1,0l0.3,0l0.2,0.1l0.1,0.1l-0.1,0.2l-0.1,0.1l-0.5,0.2c0,0-0.4,0.2-0.5,0.2c-0.1,0-0.2,0.1-0.3,0.1l-0.7,0
	c-0.2,0.3-0.4,0.7-0.6,1l0.5,0l0.4-0.2l0.1,0.1l-0.4,0.3l-0.5,0.1l-0.3,0.2c-0.1,0.2-0.2,0.5-0.4,0.7c2.1-0.2,4.2-0.3,6.3-0.4
	c0.6-2.3,1.4-4.3,2.4-5.8c-0.2,0-0.4,0-0.4,0l-1.1,0.6l-0.6,0.7l-0.3-0.1l-0.5-0.1L415.5,285L415.5,285z M413.2,288.7
	c0,0,0,0.2-0.1,0.2c-0.1,0-0.5,0-0.5,0l-0.1-0.1l-0.5,0l0-0.2l0.4-0.3l0.3-0.4l0.3-0.2l0.1,0.3l-0.2,0.1l0.3,0c0,0,0.2,0,0.2,0.1
	C413.2,288.4,413.2,288.7,413.2,288.7 M454.8,304.4L454.8,304.4c0.1,0.2,0.3,0.5,0.4,0.7c0.1,0.1,0.2,0,0.1,0.3
	c-0.1,0.3,0,0.4-0.3,0.6c-0.3,0.3-1,1.1-1.2,1.4c-0.2,0.3-0.3,0.4-0.4,0.4c-0.2,0-0.5,0.1-0.7,0.2c-0.2,0-0.3,0-0.5,0.1
	c-0.1,0-0.2,0.1-0.4,0c-0.2,0-0.2-0.1-0.3-0.1c-3.7,3.1-9.3,5.6-15.8,7c5.4-0.9,10.4-2.3,14.6-4.3c6-2.9,9.7-6.6,10.5-10.5
	c-1,1-2.7,1.9-5.1,2.7C455.5,303.3,455.1,303.9,454.8,304.4 M452.7,308.8c-0.2,0.1-0.4,0.3-0.5,0.4l-0.2,0.1l0.2-0.7l0.2,0l0.4-0.1
	C452.7,308.6,452.7,308.7,452.7,308.8 M455.9,294.2c0.6,1.3,0.9,2.7,0.9,4.1c0,1.3-0.3,2.6-0.8,3.8c2.6-0.9,4.3-1.9,5-3
	c0-0.3,0.1-0.6,0.1-0.8c0-0.4,0-0.8-0.1-1.1C460.3,296.1,458.5,295.1,455.9,294.2 M437.9,306c-2,0.2-4.1,0.3-6.2,0.4
	c-0.8,3.3-2.2,6.1-3.8,7.8c0.6,0.1,1.3,0.2,1.6,0.3C433.1,312.9,436.1,309.8,437.9,306 M409.8,290.9c-1,2.2-1.5,4.7-1.5,7.1h0.1
	c0.1,0,0.4-0.1,0.4-0.1s0.1,0.1,0.3,0.1c0.1,0,0.2,0.1,0.3,0.1v0.1l0.2,0c0,0,0,0.1,0.2,0.2c0.1,0,0.3,0.2,0.3,0.2c0,0,0,0.1,0,0.1
	s0-0.1,0.2,0.1c0.1,0.1,0.1,0.2,0.3,0.2c0.1,0,0.3-0.1,0.5,0c0.2,0.1,0.6,0.2,0.6,0.3c0.1,0.1,0.2,0.2,0.2,0.3
	c0,0.1,0.1,0.2,0.1,0.2l0.2,0.3c0,0,0,0.1,0,0.2c0,0.1,0.1,0.2,0.1,0.2c0.1,0,0.3,0.1,0.3,0.1l0.1,0.2c0,0,0.4,0,0.5,0
	c0.1,0.1,0.5,0.2,0.5,0.3c0,0,0.1,0.1,0.2,0.1c0.1,0,0.4,0.2,0.5,0.2c0.1,0,0.2-0.1,0.3,0c0.1,0.1,0.2,0.1,0.3,0.2
	c0.1,0.1,0.2,0.2,0.4,0.3c-0.1-1.1-0.2-2.3-0.2-3.4c0-2.8,0.3-5.5,0.9-7.8C413.9,290.6,411.8,290.7,409.8,290.9 M446,305
	c-2.5,0.4-5.1,0.7-7.6,0.9c-1.7,3.9-4.6,7-8.1,8.7c0.3,0,0.6,0.1,0.9,0.2C437.9,313.2,443.3,309.6,446,305 M451.5,307.2
	c0,0-0.2,0.1-0.3,0.1c-0.1,0-0.3,0.1-0.3,0c0,0,0-0.3-0.2-0.4c-0.2-0.1-0.7-0.1-0.7-0.1c-0.1,0-0.4,0.1-0.7,0.1
	c-0.2,0-0.2,0-0.5,0.2c-0.3,0.2-0.2,0.2-0.4,0.3c-0.2,0-0.3-0.1-0.5,0c-0.2,0.1-0.3,0.1-0.5,0.2c-0.2,0.1-0.5,0.2-0.6,0.1
	c-0.1-0.1-0.2-0.2-0.2-0.2s0.5-0.3,0.4-0.5c0-0.2,0-0.9,0-1c0-0.2-0.1-0.1,0-0.3c0-0.2,0.2-0.7,0.3-0.8c0.1-0.1,0.2-0.1,0.3-0.2
	c-0.3,0.1-0.6,0.1-1,0.2c-2.6,4.7-7.8,8.4-14.3,10.1l0,0c8.1-1.2,14.9-3.9,19.2-7.6L451.5,307.2 M440.1,299L440.1,299l-0.1-0.2
	c-0.1,2.3-0.5,4.5-1.3,6.6c2.6-0.2,5.1-0.6,7.7-1c0.4-0.8,0.7-1.6,1-2.4l-0.4-0.1l-0.6,0l-0.4-0.1l0-0.1l-0.2-0.1l0-0.1l0.3,0
	c0.1,0,0.2,0.1,0.2,0.1s0.2,0.1,0.3,0.1c0.1,0,0.1,0,0.2,0l0.1-0.1l0.4,0.1l0.2,0.1c0.1-0.3,0.2-0.6,0.2-0.9l-0.3,0l-0.2,0.1
	l-0.1-0.1l-0.3,0l-0.1-0.4l-0.2-0.2l0-0.3l0.1-0.2l0.3,0.1l0.2-0.3l0.3-0.1l0.2-0.3l0.2-0.1l0-0.1c0-0.2,0-0.4,0-0.7
	c0-1.1-0.2-2.2-0.4-3.3c-0.1,0.1-0.3,0.2-0.4,0.2c-0.2,0-0.7,0.2-0.7,0.2l-0.2,0.1v0.2l-0.1,0l-0.1-0.3c0,0-0.2-0.1-0.5,0.1
	c-0.2,0.1-0.3,0.5-0.3,0.5l0.2,0.2c0,0,0.1,0.1,0.2,0.2c0.1,0.1,0.4,0.3,0.4,0.3s0.2,0.3,0.2,0.4c0,0.1,0,0.5,0,0.5l-0.3,0.2
	l-0.4,0.4l-0.1,0l0-0.2l0.1-0.1l-0.3,0c0,0-0.2-0.1-0.2-0.2c0-0.1-0.3-0.3-0.3-0.3l-0.1,0l-0.1,0l0-0.2l-0.2,0l0,0.3l-0.1,0.4l0,0.2
	l0.1,0l0.1,0.1c0,0,0.2,0.3,0.2,0.3l0.1,0.1c0,0,0.1,0,0.2,0.1c0.1,0.1,0.2,0.3,0.3,0.3c0.1,0,0.1,0.5,0.1,0.5
	c0,0.1,0.2,0.2,0.2,0.2l-0.1,0l-0.6-0.3c0,0-0.3-0.5-0.3-0.7c0-0.1-0.4-0.5-0.5-0.6c-0.1,0,0-0.5,0-0.7c0-0.2-0.3-0.6-0.3-0.7
	c0-0.1-0.3-0.5-0.3-0.5s0,0.1,0,0.2c0,0.1-0.2,0.2-0.2,0.2l-0.2-0.1c0,0,0-0.4,0-0.5c-0.1,0-0.2-0.4-0.4-0.4
	c-0.2-0.1-0.3-0.4-0.3-0.4c0-0.1-0.3-0.2-0.3-0.2l-0.1,0.1l-0.3,0.1h-0.2l-0.3,0.1l0,0.2c0,0,0,0.1-0.1,0.1
	c-0.1,0.1-0.4,0.4-0.4,0.4c-0.1,0.1-0.3,0.2-0.3,0.4c0,0.1-0.3,0.2-0.3,0.2l0,0c0,0.4,0.1,0.9,0.1,1.4c0,0,0.3,0.4,0.4,0.4
	c0,0.1,0,0.1,0,0.2l0,0.1L440.1,299L440.1,299z M446.2,296.2l-0.2-0.1c-0.1,0,0-0.2,0-0.2l0.1-0.2h0.2l0.1,0l-0.1,0.3L446.2,296.2
	L446.2,296.2z M443.4,299l0.2,0.1l0.3,0l0.1,0.2l0.4,0.2l0.3,0.2l0.3,0.2l0.2,0.1l0.2,0.1l-0.1,0.2l0.1,0l0.2,0.2l0.3,0.1l0,0.7
	l-0.2,0c0,0-0.4-0.4-0.5-0.4c-0.1-0.1-0.2-0.2-0.3-0.3c0-0.1-0.2-0.2-0.2-0.2l-0.2-0.2c0,0-0.1-0.4-0.1-0.4
	c-0.1-0.1-0.1-0.1-0.2-0.2l-0.2-0.2c0,0-0.4-0.4-0.4-0.5C443.3,299,443.4,299,443.4,299 M451.4,292.1l0.1,0.3
	c1.3,0.3,2.4,0.6,3.4,0.9c-1.2-2.2-3.2-4.2-5.9-5.9l-0.1,0l-0.2,0c0,0-0.1,0-0.2,0c-0.2,0-0.4-0.1-0.7-0.1c-0.2,0-0.2,0-0.2,0
	l-0.2,0.6l-0.2,0.3l0.1,0l0.3,0.1l0.1,0.2l0.2,0l0-0.1c0,0,0.4,0.2,0.5,0.2c0.1,0,0.3,0.1,0.3,0.1s0.1,0.1,0.1,0.2
	c0,0,0.2,0.3,0.2,0.3c0.1,0.1,0.3,0.5,0.3,0.5l0,0.1c0,0,0,0.2,0.1,0.2c0,0-0.1,0.2-0.1,0.3c0,0.1-0.1,0.3-0.1,0.3l-0.2,0.2l-0.2,0
	l-0.1-0.1c0,0-0.1,0.1-0.1,0.1c0,0.1-0.2,0.2-0.2,0.2l0.2,0.2l-0.2,0.2l-0.1,0l0.1,0.2c0,0,0.3,0.1,0.4,0.2c0.7,0.1,1.3,0.2,1.9,0.4
	l0.2-0.1l0.1-0.4l-0.2-0.2l0-0.2l0.2,0l0.1,0.1l0.3,0.2l-0.1,0.3L451.4,292.1L451.4,292.1z M450.2,290l-0.2-0.3l-0.2-0.2l-0.3-0.3
	l-0.4-0.4l-0.1-0.2l0.6,0.4l0.5,0.4l0,0.3l0.3,0.4l-0.1,0.1C450.3,290.2,450.2,290,450.2,290z M451.3,290.9l-0.1,0.3l-0.3-0.1
	l-0.1,0l0,0.1l-0.1,0l-0.3-0.2c0,0,0-0.2,0.1-0.2c0.1,0,0-0.1,0-0.1l-0.2-0.3v-0.1l0.5,0.3l0.5,0.1l0.1,0.2
	C451.4,290.9,451.3,290.9,451.3,290.9z M432.4,289.2l-0.1-0.1l-0.1,0l-0.2,0l-0.2,0l-0.2,0.1l-0.2,0.2l0,0c0,0.2,0.1,0.3,0.1,0.5
	c0.2,0,0.4,0,0.6,0l-0.2-0.2l0-0.1l0.1,0.1l0.1-0.1l-0.1-0.1l0.1-0.1l0.4,0l0-0.1l-0.2-0.1C432.4,289.5,432.4,289.2,432.4,289.2z
	 M447.9,291.7L447.9,291.7c0-0.1-0.1-0.2-0.1-0.2s-0.3,0-0.4,0c-0.1,0-0.2,0.1-0.2,0.1C447.5,291.6,447.7,291.6,447.9,291.7
	 M403.6,285l0.6,0l0.4-0.1l0.2,0l-0.1,0.1c0,0,0,0.1,0.1,0.1c0.1,0,0.2-0.2,0.2-0.2v-0.1l0.6-0.1l0.5,0h0.1c0,0,0-0.1,0-0.1
	c0-0.1-0.4,0-0.4,0s-1.1,0.2-1.2,0.1c-0.1,0-0.2-0.1-0.2-0.2c0.1-0.1,0.4-0.1,0.4-0.2c0,0,0,0-0.1,0c-0.3,0.1-0.6,0.2-0.9,0.4h0.2
	l0,0.1L403.6,285L403.6,285z M446.9,292L446.9,292L446.9,292L446.9,292z M438,283.3c0.4,0.1,0.9,0.2,0.5,0.3
	c-0.3,0.1,0.4,0.3,0.4,0.3l1.1,0.2c0,0,0.9-0.1,1.2-0.1c0.3,0,1,0.4,1,0.4l1.1,0.2l0.6,0l0-0.1c-3.4-1.5-7.4-2.5-11.8-3.2
	c1.7,0.5,3.3,1,4.8,1.7C437.3,283.3,437.7,283.3,438,283.3 M402.3,293.5c-0.1,0-0.4,0-0.4,0s-0.4,0.1-0.6,0.1
	c-0.2,0-0.3,0.1-0.5,0.3c-0.2,0.5-0.3,1-0.5,1.6c0.1,0.4,0.5,0.6,0.8,0.6c0.5-0.1,0.8-0.2,0.8-0.3c0-0.1,0.3-0.3,0.3-0.3l0.5-0.1
	l0.2,0c0,0,0.1,0.1,0,0.2c-0.1,0.2-0.4,0.4-0.4,0.4s-0.2,0.2-0.2,0.3c0,0.1-0.2,0.2-0.3,0.3c-0.1,0.1,0.4,0.1,0.4,0.1l0.7-0.1
	c0,0,0.4,0.1,0.4,0.1c0,0.1-0.2,0.7-0.2,0.9c0,0.2,0.3,0.4,0.5,0.5c0,0,0.1,0.1,0.3,0c0.2-0.1,0.5-0.1,0.5-0.1l0.3,0.1l0.2,0.3
	l0.1-0.2l0.2-0.1c0,0,0.1-0.1,0.1-0.1c0,0-0.1-0.1,0.1-0.2c0.2-0.1,0-0.1,0.2-0.1c0.2,0,0.2,0,0.4-0.1c0.2-0.1,0.3-0.1,0.3-0.1
	l0.1,0.1l-0.1,0.2v0.1c0,0.1-0.1,0.2,0,0.2c0,0,0.2,0,0.2,0l-0.1-0.2l0-0.1l0.5-0.2l0.3,0.1c0,0,0,0.1,0,0.1c0,0,0,0,0.3,0
	c0-0.6,0-1.2,0.1-1.8h0l0-0.1h0c0.2-1.8,0.6-3.5,1.3-5c-0.7,0.1-1.4,0.1-2,0.2c0,0,0,0.1-0.1,0.1c-0.1,0.1-0.2,0.2-0.4,0.3l0,0.2
	c0,0-0.7,0.5-0.7,0.5c-0.2,0.1-0.4,0.1-0.5,0.2c-0.1,0-0.4,0.3-0.4,0.4c-0.1,0.1-0.1,0.6-0.1,0.6c0,0.1,0.1,0.3,0.1,0.4
	s0.1,0.1,0,0.2c-0.1,0.1-0.2,0.2-0.3,0.2l-0.1,0c0,0-0.1-0.3-0.1-0.4c0-0.1-0.1-0.2-0.1-0.2c0,0,0-0.2,0-0.2l-0.1-0.1
	c0,0-0.2-0.1-0.3-0.1c-0.1,0.1-0.2,0.1-0.2,0.1s-0.2-0.2-0.4-0.2c-0.2,0-0.7-0.2-0.7,0c0,0.2,0.3,0.2,0,0.2
	C402.4,293.5,402.4,293.5,402.3,293.5 M405.6,296.2h-0.3l-0.1-0.1l0-0.1L405.6,296.2L405.6,296.2z M406.5,295.8L406.5,295.8l0-0.1
	l0.3,0.1l0.3-0.1c0,0,0.2,0.1,0.2,0.2c0,0,0.3,0.1,0.3,0.1l0,0.1l-0.3,0l-0.2,0.1l-0.1,0l-0.2,0.2l-0.1-0.1h-0.6V296l0.3,0
	L406.5,295.8L406.5,295.8L406.5,295.8z M404.2,294.9l0.4,0l0.2,0l0.2,0.1l0.3,0.1l0.3,0.1l0.2,0.1l0.3,0.1l0,0.1l-0.1,0.1l-0.3,0
	l-0.4,0l-0.1,0l0.2-0.1l0,0l-0.1,0l-0.2-0.1l-0.1-0.2l-0.2,0l-0.3-0.1l-0.2-0.1l-0.1-0.1l-0.2,0.1l-0.3,0.1l-0.1,0L404.2,294.9
	L404.2,294.9z M449.8,287.3c0.4,0.3,0.8,0.5,1.1,0.8c0,0-0.1-0.1-0.1-0.1l0-0.2c0,0,0.2,0,0.2-0.1c0-0.1,0-0.2,0-0.3
	c0-0.1,0-0.2,0-0.2l0.1-0.1l0-0.1l-0.2-0.1l0-0.1l-0.2,0l0.1,0.1l-0.1,0l-0.1,0.2c0,0-0.2-0.1-0.2-0.1c0-0.1-0.1-0.1-0.4-0.1
	C449.6,287,449.8,287.3,449.8,287.3L449.8,287.3 M437.3,295c0,0-0.2,0.1-0.2,0c0-0.1-0.3-0.2-0.3-0.2l-0.3-0.4l-0.2,0
	c0,0-0.7,0.1-0.7,0.1c-0.3-0.1-0.5-0.1-0.8-0.2c-0.3,0-0.2-0.1-0.3-0.2c0-0.1-0.1-0.2-0.2-0.2c-0.2,0-0.3,0.1-0.3,0.1
	c-0.1,0-0.4-0.2-0.5-0.2c-0.1,0-0.3-0.1-0.4-0.2c-0.1-0.1-0.3-0.5-0.4-0.5c-0.1,0-0.3,0-0.4,0c-0.1,0.1,0,0.2,0.1,0.3
	c0.1,0.1,0.2,0.3,0.3,0.4c0.1,0.1,0.1,0.2,0.1,0.3c0,0.1,0.1,0.2,0.1,0.2l0.1,0l0-0.2l0.1-0.1l0.1,0.1l0.1,0.3c0,0,0.1,0.1,0.1,0.1
	c0.1,0,0.1,0,0.2,0c0.1,0,0.2,0,0.2-0.1c0.1-0.1,0.4-0.4,0.4-0.4s0,0.1,0,0.3c0,0.2,0.3,0.3,0.4,0.3c0.1,0,0.1,0,0.2,0.1
	c0.1,0,0.1,0.1,0.2,0.2c0,0.1,0.1,0.1,0.1,0.1s0,0.2-0.2,0.4c-0.2,0.2-0.1,0.4-0.1,0.4s-0.1,0-0.2,0.1c0,0.1,0,0.1-0.1,0.1
	c-0.1,0-0.2,0.1-0.3,0.2c-0.1,0.1-0.2,0.1-0.4,0.1c-0.2,0.1-0.1,0.3-0.1,0.3c-0.3,0.1-0.7,0.3-1.1,0.4c0,0.2,0,0.4,0,0.6
	c0.1,0,0.1,0,0.2,0c0.1,0,0.1,0,0.2,0c0.1,0,0.1,0,0.2,0l0.3-0.2l0.1,0c0,0,0.1,0.4-0.1,0.6c-0.1,0.2-0.1,0.7-0.3,1
	c-0.2,0.2-0.4,0.5-0.5,0.7c0,0-0.1,0.1-0.1,0.1c-0.1,2-0.3,4-0.8,5.9c2.1-0.1,4.2-0.2,6.3-0.4c0.9-2.2,1.4-4.5,1.4-7l-0.1,0
	c0,0-0.2-0.2-0.3-0.4c-0.1-0.2-0.2-0.3-0.4-0.7c-0.2-0.4-0.4-0.6-0.4-0.8l-0.3-0.8c0,0,0-0.1,0-0.2c0-0.1,0-0.1,0-0.1l-0.1-0.1
	l-0.1,0.2c0,0-0.2,0.1-0.3,0.1c-0.1,0-0.4-0.4-0.4-0.4S437.2,295.1,437.3,295C437.3,295.1,437.3,295,437.3,295 M446.8,291.2
	l-0.1,0.3c0.1,0,0.2,0,0.3,0.1l0-0.1l0-0.2L446.8,291.2z M446.4,284.9c0.7,0.1,0.4,0,1.2,0.3c0.3,0.1,1,0.2,1.7,0.3
	c-3.9-1.7-8.5-3-13.6-3.8c3.5,0.7,6.7,1.8,9.5,3.1C445.5,284.8,446,284.9,446.4,284.9 M431.3,305.9c0.4-1.7,0.7-3.5,0.8-5.5
	c-0.1,0.1-0.2,0.2-0.3,0.3c-0.3,0.4-0.6,1.3-0.6,1.3l0.2,0.2c0,0,0.1,0.2,0.1,0.3c0,0.1,0,0.4,0,0.4s0.2,0.1,0.2,0.3
	c0,0.1,0,0.1,0,0.4c0,0.3,0,0.3,0,0.6c0,0.3-0.5,0.6-0.7,0.7c-0.2,0.1-0.2,0.2-0.3,0.3c-0.1,0.1-0.2,0.3-0.2,0.3s0.1,0.1,0.1,0.4
	C430.8,305.9,431,305.9,431.3,305.9 M409.9,282.9c0.2-0.1-0.2-0.1-0.2-0.1l-0.6,0.2L409,283c-1.1,0.3-2.1,0.6-3.1,1
	c0.1,0,0.1,0,0.1,0s0.2-0.1,0.4-0.2c0.1,0,0.4,0,0.4,0l-0.3,0.3l0.2,0.1l-0.2,0.6l0.2,0c0,0,0.4-0.1,0.4,0c0,0.1,0-0.2,0-0.2
	l0.5-0.1l0.2,0l0.3-0.2l-0.1-0.1l-0.2-0.1l0.4-0.2c0,0,0.3-0.3,0.3-0.3c0,0,0.3-0.3,0.3-0.3s0.4-0.1,0.4-0.1c0,0,0,0.1,0,0.1
	l-0.5,0.3l-0.2,0.2l-0.1,0.1l0.2,0.2c0,0,0.1-0.1,0.2-0.1c0,0,0.1,0,0.1,0c0.2-0.1,0.4-0.2,0.6-0.3c-0.6,0-0.1-0.2-0.1-0.2l0.4-0.3
	l0.5-0.3l0.8-0.1l0.4-0.2l-1.4,0.1C410.2,283.1,409.8,283,409.9,282.9 M407.7,283.9l-0.3-0.3l0.6-0.2l0.2,0.1L407.7,283.9z
	 M405.5,268.7c-0.1,0-0.1,0.1-0.1,0.2c0,0,0,0,0,0c0,0.1,0.2,0.1,0.3,0.1c0.1-0.1,0.3-0.3,0.4-0.4
	C406,268.6,405.6,268.7,405.5,268.7"/>
<path class="st0" d="M468.6,235.1c-0.1,0-0.2-0.1-0.4,0c-0.4,0.2-1.8,1.3-2.3,1.6c0-0.1,0-0.1,0.1-0.2l0.1-0.2
	c0.3-0.7,1.3-2.6,1.3-3.8c0-0.3,0-0.5-0.1-0.7c0,0,0-0.2-0.2-0.2c-0.2-0.1-0.4,0-0.7,0.3c-0.5,0.5-3.7,3.5-3.8,3.5
	c0,0-0.1,0.1-0.1,0.1v0c0,0,0-0.1,0-0.2l0.2-0.7c0.1-0.5,0.3-1.1,0.3-1.5c0-0.2,0-0.4-0.1-0.5c0-0.1-0.1-0.2-0.2-0.2
	c-0.2,0-0.4,0.1-0.5,0.3c-0.3,0.5-4.5,4.9-5.3,5.5c-0.1,0.1-0.1,0.1-0.1,0.1c0-0.2,0.2-0.5,0.4-1c0.1-0.3,1-2.3,1-3.2
	c0-0.1,0-0.2-0.1-0.3c0-0.1-0.2-0.2-0.3-0.2c-0.6,0-1.8,1.3-4.7,4.6c0,0-2.3,2.6-2.4,2.7v0c0-0.1,0-0.2,0-0.3c0-0.5-0.1-1.5-0.4-2
	c-0.2-0.2-0.3-0.3-0.5-0.3c-0.3,0-0.5,0.3-0.9,1.1c-0.4,0.9-3.6,4.2-7.2,7l-0.1,0.1c-3.3,2.6-5.5,4.3-8,8.1c-2,2.9-5.4,4.4-7.9,5.6
	c-0.7,0.3-1.4,0.6-2,0.9c-0.2,0-2.6-0.3-5.3-0.2c-0.2-1.1-0.9-4.2-4.5-6.4c-3.6-2.3-8.9-5.7-12.6-8.9c-2.3-2-3.8-3.9-4.7-5.1
	c-0.6-0.7-0.8-1-0.9-1c-0.2-0.1-0.4,0-0.5,0.1c-0.1,0.1-0.1,0.2-0.1,0.5c0,0.3,0.1,0.8,0.4,1.6l0,0l-0.2-0.1c-0.5-0.3-1.8-0.9-3.3-3
	c-1.5-2.1-2.6-5.1-2.6-5.1c0-0.1-0.1-0.2-0.2-0.2c-0.2,0-0.3,0.2-0.3,0.4c-0.1,0.4-0.2,0.9-0.2,1.7c0,0.7,0.1,1.7,0.4,3h0
	c-0.2-0.1-2.2-2-4.2-5.3c-0.1-0.1-0.3-0.4-0.6-0.3c-0.1,0-0.2,0.1-0.2,0.2c0,0.1-0.1,0.2-0.1,0.4c0,0.8,0.6,2.4,1.6,4.5
	c-1.3-1.2-2.4-2.5-3.5-3.9c-0.1-0.1-0.4-0.6-0.7-0.6c-0.1,0-0.2,0-0.3,0.1c-0.1,0.1-0.1,0.2-0.1,0.4c0,0.7,0.4,2.1,1.3,4
	c-0.7-0.5-1.3-1-2-1.5c0,0-0.3-0.2-0.5-0.1c-0.1,0.1-0.2,0.3-0.2,0.6c0,0.6,0.5,1.7,0.7,2.1c-0.1,0-0.2-0.1-0.2-0.1
	c-0.2-0.1-0.6-0.3-0.8-0.3c-0.1,0-0.2,0-0.3,0.1c0,0.1,0,0.1,0,0.2c0,0.4,0.3,1,0.5,1.4c0.3,0.5,1.7,1.8,2.2,2.3
	c-0.5-0.2-1.5-0.4-1.6-0.5c0,0-0.4-0.1-0.6,0.1c-0.1,0.1-0.1,0.1-0.1,0.2c0,0,0,0.1,0,0.2c0.2,0.5,1.9,1.8,5.1,3.6
	c-0.6-0.1-0.9,0-1,0.1c0,0-0.1,0.1-0.1,0.1c0,0.1,0,0.1,0,0.1c0.2,0.5,2.1,1.5,3.7,2c0,0-0.1,0-0.2,0c-0.4,0-0.6,0-0.7,0.1
	c0,0,0,0.1,0,0.1v0.1c0.1,0.3,0.2,0.7,3.8,2.1c-0.5,0-0.8,0-0.9,0.2c0,0,0,0.1,0,0.1c0,0,0,0.1,0,0.1c0.2,0.4,1.9,1.5,5.2,2.5
	c-0.3,0.1-0.5,0.1-0.6,0.2l0,0.1l0,0c0.2,0.7,3.5,1.9,6.5,2.8c-0.3,0-0.5,0.1-0.6,0.2c-0.1,0-0.1,0.1-0.1,0.2l0,0
	c0,0.3,0.9,1.3,7.8,3.1c0.1,0,0.1,0,0.2,0c0,0-0.1,0-0.1,0c-0.1,0.1-0.3,0.1-0.3,0.3v0c0,0.2,0.2,0.4,0.7,0.7c1,0.6,2.7,1.2,3.2,1.4
	c-2.1,1.1-4.2,2.3-6.2,3.6c0,0-0.1,0.1-0.1,0.1v0.1c0,0.2-0.1,1-0.9,1.4c-0.5,0.3-1.2,0.8-1.4,1.8c0,0.1,0,0.2,0,0.3
	c0,0.8,0.5,1.8,1.5,2.8c0.2,0.2,0.4,0.2,0.4,0.1c0.1-0.1,0.1-0.3,0.1-0.4c0,0-0.2-0.5,0-0.8c0.1-0.2,0.2-0.3,0.4-0.3
	c0.6-0.2,1.2,0,1.5,0.1l0.3,0.1c0.4,0.1,1.2,0.1,1.8-0.3c0.5-0.3,2.1-0.2,3-0.1l0.3,0l0.3,0c-0.2,0.3-0.5,0.6-0.7,0.8l-0.5,0.4
	c-0.5,0.4-0.8,0.6-1.2,1.1c-0.1,0-2.8,0.5-2.8,0.5s-0.1,0-0.1,0.1c0,0-0.7,1.3-1.7,2.2c-1,0.9-2.1,1.3-2.1,1.3c0,0,0,0,0,0
	c0,0-0.4,0.6-0.5,1.9c0,0.1,0,0.2,0,0.4c0,0.1,0,0.1,0,0.2l0,0.1c0,0,0.2,0.3,0.4,0.4c0.1,0,0.4,0.3,0.8,0.5c0,0,0.3,0.1,0.6,0.2h0
	l0,0l0,0l0.1,0c-2.9,0.8-5.6,1.8-8.1,3c-7.7,3.7-12,8.7-12,14.2c0,5.5,4.2,10.5,12,14.2c7.3,3.5,17,5.4,27.3,5.4
	c10.3,0,20-1.9,27.3-5.4c7.7-3.7,12-8.7,12-14.2c0-5.5-4.2-10.5-12-14.2c-4.6-2.2-10.1-3.8-16.1-4.6h0c0,0,0,0,0.1,0
	c0.3-0.1,0.4-0.3,0.5-0.6c0.4,0.2,1.4,0.7,2.2,0.5c1.1-0.3,1.4-1.2,1.4-1.4c0-0.1,0.1-0.1,0.2-0.1l0.2,0.1c0.3,0.1,0.9,0.3,1.5,0.1
	c0.4-0.2,0.7-0.6,0.8-0.8c0.1-0.2,0.2-0.3,0.3-0.3c0.1-0.1,0.2-0.1,0.4-0.1c0.3-0.1,0.8-0.1,1-0.4c0,0,0.2-0.4,0.2-0.7
	c0-0.1,0-0.4,0.2-0.5c0,0,1.6-0.6,1.9-1.7c0,0,0.1-0.3,0-0.6c-0.1-0.3-0.4-0.4-0.8-0.5l-12.5-3.3c0,0-0.4-0.2-0.8-0.7
	c1.1,0,5.2,0,7.8-0.8c0.1,0,0.3-0.2,0.3-0.3c0-0.1-0.1-0.2-0.2-0.3c-0.2-0.1-0.3-0.2-0.4-0.2l0.1,0c0.5-0.1,4-0.9,4.8-1.3
	c0.4-0.2,0.5-0.4,0.5-0.5v0c0-0.2-0.3-0.3-0.5-0.3c-0.1,0-0.4,0-0.6-0.1c0.1,0,0.3-0.1,0.3-0.1c1-0.2,3.7-0.8,5.3-1.5
	c0.1-0.1,0.4-0.2,0.4-0.4v0c0-0.1,0-0.2-0.2-0.3c-0.3-0.2-1.7-0.2-1.9-0.2c0,0,0.1,0,0.1-0.1c0.1,0,0.5-0.2,0.9-0.3
	c1.8-0.6,5.1-1.7,6-2.9c0.1-0.1,0.1-0.2,0.1-0.3c0-0.1-0.1-0.2-0.3-0.3c-0.4,0-0.8,0-1.2,0l0.1-0.1l0.3-0.1c1.1-0.5,4.4-2.2,6.1-3.7
	c0.1-0.1,0.3-0.4,0.3-0.6l0,0l-0.1-0.2c0,0-0.2-0.2-0.7-0.2l-0.1,0c0,0,0.1-0.1,0.2-0.1l0.2-0.1c2.2-1.1,3.7-2.2,4.5-3.1
	c0,0,0.1-0.2,0.1-0.3c0-0.1,0-0.1,0-0.1c0-0.1-0.1-0.2-0.3-0.2c-0.4,0-1.4,0.1-1.6,0.2v0c0,0,0-0.1,0.2-0.2l0.3-0.2
	c0.8-0.5,2.5-1.7,3.4-3.2c0,0,0,0,0,0c0-0.1,0-0.4-0.2-0.5c-0.1,0-0.2-0.1-0.3,0l-0.9,0.2c0,0,0,0,0.1-0.1c0,0,2.9-3,3.5-4.7
	c0.2-0.5,0.3-0.8,0.3-1c0-0.1,0-0.2-0.1-0.2c-0.1-0.1-0.4,0-0.6,0.2l-0.1,0.1l-2,1.2h0c0,0,0.1-0.1,0.2-0.2l0.4-0.5
	c0.8-1,2.4-2.8,2.6-4.3v0c0,0,0-0.1,0-0.1C468.8,235.4,468.8,235.2,468.6,235.1 M453,242.1c2.4-1.7,5.4-4,8-6.7l0,0
	c0,0.1,0,0.2-0.2,0.4c-0.5,0.8-3.6,3.8-8,6.8C453,242.5,453,242.3,453,242.1 M464.4,235.2c0,0,0.1,0,0.1,0c0,0,0.1,0.1,0.1,0.1v0
	c0,0.1-0.1,0.5-0.6,1.1c-0.6,0.7-6.1,5.9-12.6,9.5c0.3-0.4,0.5-0.8,0.7-1.2C455.4,242.7,459.6,239.7,464.4,235.2 M452.1,242.8
	c0,0.1-0.2,0.4-1,1.1c-0.9,0.6-1.8,1.1-2.8,1.6c0.1-0.2,0.2-0.3,0.3-0.5C448.7,244.9,450.1,244.1,452.1,242.8 M446.6,255.5
	c-1.8,0.6-3.6,1.2-5.4,1.6c0,0-0.1,0-0.1,0c0,0,0-0.1,0-0.1l0.8-1.3c0,0,0-0.1,0.1-0.1c2-0.5,3.9-1,5.8-1.7c0,0,0,0,0,0.1l0,0.1
	c0,0.1,0,0.1,0,0.2C447.5,254.8,447.1,255.2,446.6,255.5 M446.6,256.9L446.6,256.9c0,0.1-0.1,0.1-0.1,0.2c-0.2,0.3-0.7,0.7-1.7,1.1
	c-1.8,0.6-3.7,1.2-5.6,1.6c-0.1,0-0.1,0-0.1-0.1c0,0,0-0.1,0-0.1l0.8-1c0,0,0,0,0.1,0c0.8-0.2,3.2-0.7,6.5-1.8
	C446.6,256.7,446.6,256.8,446.6,256.9 M447.5,252.6c-1.5,0.6-3.1,1-4.5,1.4c-0.1,0-0.1,0-0.1,0c0,0,0-0.1,0-0.1l0.6-1.3
	c0,0,0.1-0.1,0.1-0.1c0.9-0.2,2.6-0.7,4.9-1.5c0.1,0,0.1,0.1,0.1,0.1v0c0,0.1,0,0.2,0,0.3C448.4,251.7,448.1,252.2,447.5,252.6
	 M448.3,249.6c-1.3,0.5-2.6,0.9-3.9,1.3c0,0-0.1,0-0.1,0c0,0,0-0.1,0-0.1l0.4-0.9c0,0,0-0.1,0.1-0.1c1.3-0.3,2.6-0.8,3.9-1.3
	c0,0,0.1,0,0.1,0.1v0.2C448.7,249,448.6,249.4,448.3,249.6 M446.3,248.3c-0.1,0-0.1,0-0.2,0c0,0,0-0.1,0-0.2l0.5-0.6l0,0
	c1.4-0.6,2.8-1.2,4.1-2c-0.4,0.6-1,1.2-1.6,1.6C448.2,247.5,447.3,247.9,446.3,248.3 M396.7,242c0.1,0.1,0.4,0.6,0.4,0.6
	c1,1.6,3.4,4.6,7.3,7.1c3.9,2.5,4.6,2.6,8.5,5.6c3.9,3,3.6,4.9,3.6,5.2c0,0.3-0.3,0.3-0.3,0.3c-0.8,0.2-2.6,0.8-2.9,1
	c-0.3,0.2-0.2-0.2-0.2-0.2c0.5-0.7,0.6-1.6,0.6-1.6c0.1-3.7-6-5.7-11.3-10.1c-5.4-4.4-5.6-6.4-5.8-7.1
	C396.4,242,396.6,241.9,396.7,242 M397.4,249.8c1.3,0.2,2.5,0.4,3.8,0.6l0.1,0l0,0l1.1,0.7c0,0,0,0.1,0,0.1c0,0,0,0.1-0.1,0
	l-0.6-0.1c-0.7-0.1-1.4-0.2-2.2-0.3c-1.2-0.3-2.1-0.7-2.2-0.9C397.4,249.9,397.4,249.9,397.4,249.8 M395.8,248.3
	c-0.1-0.1-0.1-0.2-0.1-0.2l1.2,0.3l2.2,0.4l0,0l1.1,0.7c0,0,0.1,0.1,0,0.1c0,0-0.1,0.1-0.1,0.1c-0.6-0.1-1.3-0.2-1.9-0.4
	C396.9,248.8,395.9,248.5,395.8,248.3 M399.9,252.1c0.9,0.2,1.8,0.3,2.8,0.4l1.8,0.2l0,0l1.1,0.6c0,0,0.1,0.1,0,0.1
	c0,0-0.1,0.1-0.1,0.1l-2.3-0.3c-0.4,0-0.8-0.1-1.2-0.2c-1.6-0.3-2.1-0.8-2.1-0.9C399.9,252.1,399.9,252.1,399.9,252.1 M402.8,254.2
	c0.4,0.1,0.7,0.1,1,0.1c1,0.1,2,0.2,3,0.3l0,0l0.4,0.3c0,0,0.1,0.1,0,0.1c0,0-0.1,0.1-0.1,0.1h-0.1c-0.4-0.1-1-0.1-1.6-0.1
	c-1.4-0.1-2.6-0.5-2.7-0.6C402.7,254.3,402.8,254.2,402.8,254.2 M396.2,246.6l0.1,0l0.2,0.1h0l1.1,0.8c0,0,0.1,0.1,0,0.1
	c0,0-0.1,0.1-0.1,0.1l-1-0.3c-0.2,0-0.4-0.1-0.6-0.2c-1.2-0.4-1.4-0.7-1.5-0.9c0,0,0-0.1-0.1-0.1c0,0,0,0,0-0.1
	C395,246.3,395.6,246.5,396.2,246.6 M395.3,245.3c0,0-0.1,0.1-0.1,0c-0.7-0.2-1.4-0.4-2.1-0.6c-0.6-0.3-1.2-0.7-1.7-1.1
	c-0.1-0.1-0.1-0.1-0.1-0.1c0.9,0.3,2,0.7,3.1,1l0.9,0.6C395.3,245.2,395.3,245.3,395.3,245.3 M389.8,236.8c2,3.7,4.2,4.9,4.4,5
	c0.5,0.3,0.8,1.2,1,1.6c0,0,0,0.1,0,0.1h0c-0.2-0.1-3.5-2.1-4.4-4C390,238.1,389.8,237.2,389.8,236.8L389.8,236.8 M389.4,241
	c0.9,0.5,1.8,1,2.8,1.4l0.8,0.7c0,0,0,0.1,0,0.1c0,0-0.1,0.1-0.1,0l-0.8-0.3l0,0c0,0-0.1-0.1-0.5-0.2c-0.4-0.2-0.7-0.4-1.1-0.5
	c-0.6-0.4-0.9-0.6-1-0.8c0-0.1-0.1-0.1-0.1-0.2C389.4,241.1,389.4,241.1,389.4,241 M382.8,235.8c0,0,0.1,0,0.1,0
	c0.2,0.3,0.8,1.1,2.1,2.3l0.1,0.1c0.4,0.4,0.9,0.7,1.4,1.1c0.6,0.4,1.1,0.8,1.7,1.1c0.1,0.2,0.1,0.4,0.2,0.6c-0.8-0.5-1.6-1-2.3-1.6
	c-0.8-0.6-1.5-1.3-2.2-2l-0.7-0.7l-0.2-0.3c-0.1-0.1-0.3-0.3-0.3-0.5v0l0,0L382.8,235.8C382.7,235.8,382.8,235.8,382.8,235.8
	 M382.2,238.8L382.2,238.8L382.2,238.8L382.2,238.8c0-0.1,0-0.1,0-0.1c0,0,0.1,0,0.1,0c0.1,0.1,0.5,0.4,1,0.9c1,0.7,2.9,1.9,6.1,3.3
	c0.2,0.3,0.4,0.5,0.7,0.8c-2.3-1-5-2.3-7.1-4l-0.5-0.4C382.4,239.1,382.3,238.9,382.2,238.8 M383,241.6l-0.3-0.2h0l0,0l0-0.1l0-0.1
	c0,0,0.1-0.1,0.1,0c0.5,0.4,2.3,1.6,5.7,2.9c0.8,0.3,1.7,0.7,2.5,1c0.6,0.2,1.3,0.4,1.9,0.7c0.2,0.1,0.4,0.2,0.5,0.4
	c0,0,0,0.1,0,0.1l0,0.1c0,0.1,0,0.2,0,0.2c-1-0.3-2-0.6-2.9-1c-3-1.1-5.3-2.3-7.1-3.6C383.5,241.9,383,241.6,383,241.6z
	 M384.4,244.3c0,0-0.3-0.2-0.4-0.2l0,0l0,0c0,0,0,0,0-0.1l0-0.1c0,0,0.1-0.1,0.1,0l0.6,0.3c1,0.5,2.1,1,3.2,1.4c1.8,0.7,3.9,1.4,6,2
	l0.4,0.1c0.1,0.1,0.4,0.3,0.4,0.5c0,0.1,0,0.1,0,0.1c-0.1,0-0.2,0-0.6-0.1l-1.1-0.3l-1.9-0.6l-0.1,0l-0.7-0.2l-1-0.3
	C387.5,246,385.7,245.2,384.4,244.3 M387,247.3L387,247.3L387,247.3L387,247.3C387.1,247.3,387,247.3,387,247.3 M387.5,248.4
	L387.5,248.4L387.5,248.4 M388.3,247.8L388.3,247.8c0,0-0.2-0.1-1-0.5l-0.3-0.1c0,0,0-0.1,0-0.1l0,0c0-0.1,0.1-0.1,0.1-0.1
	c1.1,0.4,2.3,0.8,3.5,1.2c1.7,0.5,3.4,0.9,5.2,1.3c0.2,0.1,0.6,0.5,0.7,0.6c0.1,0.1,0,0.1,0,0.2c-1-0.2-2.1-0.5-3.1-0.8
	c-1-0.3-2-0.6-3-1C389.6,248.4,389,248.1,388.3,247.8 M391.3,250.1L391.3,250.1C391.2,250.1,391.2,250,391.3,250.1l-0.1-0.1
	c0-0.1,0.1-0.1,0.1-0.1c0.9,0.3,3.4,1.2,7.1,1.9c0.2,0.1,0.8,0.6,0.9,0.7c0,0,0.1,0.1,0,0.1c-0.1,0-0.1,0-0.2-0.1
	C396.1,251.9,393.5,251.1,391.3,250.1 M395.6,252.9C395.6,252.8,395.6,252.8,395.6,252.9l-0.1-0.1c0,0,0.1-0.1,0.1-0.1
	c1.8,0.5,3.6,0.9,5.4,1.3c0.2,0.1,0.5,0.3,0.6,0.4c0.1,0,0.1,0.1,0.1,0.2c-0.2,0-0.3-0.1-0.4-0.1C399.4,254,397.5,253.5,395.6,252.9
	 M399.5,255.3c-0.1,0-0.1-0.1-0.1-0.1c0,0,0.1-0.1,0.1-0.1c1.1,0.3,2.7,0.6,4.6,0.9c0.1,0,0.2,0.1,0.3,0.1c0.2,0.1,0.7,0.4,0.7,0.5
	C403.3,256.3,401.4,255.9,399.5,255.3 M407.5,258.5c-0.6-0.1-1.3-0.2-2.2-0.3c-0.1,0-0.1-0.1-0.1-0.1c0-0.1,0-0.1,0.1-0.1
	c0.7,0.1,1.4,0.1,2.1,0.2h0c0,0,0.2,0,0.4,0.1c0.2,0.1,0.6,0.3,0.6,0.4C408.1,258.6,407.8,258.6,407.5,258.5 M408.5,257
	c-1.3-0.1-2.4-0.5-2.5-0.6c-0.1-0.1-0.1-0.1-0.1-0.1c1,0.1,1.9,0.2,2.9,0.2h0c0,0,0.1,0.1,0.2,0.1C409.3,256.7,409.6,257,408.5,257
	 M410.8,258.7c-0.2,0-0.7-0.1-0.9-0.2c0,0-0.1-0.1-0.1-0.1c-0.2-0.1-0.1-0.2-0.1-0.2l0.2,0h0.8l0.1,0c0,0,0.2,0.2,0.2,0.3
	C410.9,258.6,410.9,258.6,410.8,258.7 M411.1,259.9L411.1,259.9c-0.2-0.1-0.1-0.1-0.1-0.1l0.1,0l0.4,0l0,0c0,0,0.1,0.1,0.1,0.2
	c0,0,0,0-0.1,0.1C411.6,260,411.3,260,411.1,259.9 M411.6,273.2l2.4-1.8c0.2-0.2,0.3-0.2,0.3-0.2l1.5,0c0,0-2.2,1.3-2.9,1.6
	C412.3,273.1,411.7,273.3,411.6,273.2C411.6,273.3,411.6,273.2,411.6,273.2 M423.4,270.2c0-0.2-0.4-0.9-1.9-1.2c0,0-0.1-0.1,0.1-0.1
	c0.2-0.1,1.3-0.3,2.9,0.2c0,0,0.1,0,0.1,0c0-0.1-0.3-0.7-1-0.9c0,0-0.1-0.1,0-0.1c0.1,0,2.8-0.4,2.8,3.5c0,0-0.1,0.1-0.2,0
	c-0.1-0.1-0.7-0.9-1-1.3c-0.4-0.4-0.4,0-0.4,0.6c0,0.6-0.3,2.7-0.5,2.4c-0.2-0.4-0.4-1.2-0.7-0.8c-0.3,0.4-0.6,1.3-2,2.1
	c0,0-0.1,0.1-0.1-0.1c0-0.2,0.2-1.3,0.2-1.3s0-0.2,0-0.2c0,0-1.4,1.2-3,1.9c0,0-0.2,0.1-0.2-0.1c0.1-0.2,0.6-1.5,0.6-1.5
	s-1.3,0.8-3.7,0.9c0,0-0.1,0-0.1-0.1s-0.1-0.9-0.5-1.2c0,0,1.3-0.5,2.5-1.3c0.6-0.4,1.2-0.8,1.6-1.2c1-0.3,2.4-0.5,4.4-0.3
	C423.3,270.3,423.5,270.4,423.4,270.2 M430.9,277.7L430.9,277.7l-0.1,0.2c-0.1,0-0.2,0-0.5-0.1l-2.3-3.4c0,0,0-0.1,0-0.1
	c0.1,0,0.1,0,0.1,0S430.9,277.7,430.9,277.7z M429,273.1C429.1,273.1,429.1,273.1,429,273.1l5.3,4.7l0,0.1c0,0.1-0.1,0.2-0.2,0.2
	c-0.1,0.1-0.3,0.1-0.5,0l-0.2-0.1l-2.3-2.5l-1.6-1.8L429,273.1C429,273.2,429,273.2,429,273.1 M428.2,276.5c-0.1,0-0.1,0-0.1,0
	l-0.9-1.8c0,0,0-0.1,0-0.1c0,0,0.1,0,0.1,0l0.9,1.8C428.3,276.4,428.3,276.5,428.2,276.5 M428.5,268.8c0,0-0.1,0-0.1,0
	c-0.5-0.5-1-1-1.6-1.3c0,0-0.1-0.1-0.1-0.1c0,0,0.1-0.1,0.1,0c0,0,0.9,0.5,1.7,1.4C428.5,268.7,428.5,268.7,428.5,268.8
	 M427.6,269.7c0,0.1,0,0.2-0.1,0.3c-0.1,0-0.2,0-0.2-0.1c0,0,0,0,0,0c-0.6-1.5-1.5-2.1-1.5-2.1c-0.1-0.1-0.1-0.2-0.1-0.3
	c0.1-0.1,0.2-0.1,0.3-0.1c0,0,0,0,0,0C425.9,267.5,426.9,268.1,427.6,269.7 M406.1,276.8c0.4-0.6,1.7-2,1.7-2s1.8-0.2,2.8-0.4
	c1-0.2,3-0.5,3-0.5l0,0.2c0,0.2-0.4,0.2-0.4,0.2c-1,0.1-1.3,0.6-1.4,1.1c0,0.5-0.3,1.1-0.3,1.1c0-0.2-0.2-0.9-0.7-1.1
	c-0.6-0.2-1.8,0.2-2.4,0.9c-0.5,0.8,0,1.9,0,1.9c-1-0.4-1.1-1.1-1-1.3c0-0.3,0.3-0.8,0.3-0.9c0-0.1-0.1-0.1-0.1-0.1s-0.8,0.7-0.9,1
	c0,0.3,0.3,1.2,0.3,1.2s-0.8-0.6-1.1-0.9C405.8,277,406.1,276.8,406.1,276.8 M405.3,280.9L405.3,280.9L405.3,280.9L405.3,280.9
	 M406.7,280.6L406.7,280.6c-0.1-0.1-0.1-0.2-0.2-0.2l-0.5-0.6l0,0l0,0c0,0,0,0-0.1-0.1v0l0-0.1c0,0,0-0.1,0-0.1
	c0.1-0.2,0.2-0.3,0.3-0.4c0.2,0.2,1,0.7,2.2,0.9c0,0,0.1,0,0.1,0c0,0,0-0.1,0-0.1v0c0,0,0-0.3,0-0.4c0.2,0,0.7,0.1,1.3,0.1
	c0,0,0.1,0,0.2-0.1c0,0,0-0.1,0-0.2L410,279c-0.2-0.2-0.7-0.8-0.7-1.3c0-0.3,0.3-0.6,0.8-0.8c0.4-0.1,0.8,0.1,1,0.4
	c0.6,1,0.2,1.4,0.2,1.4c0,0,0,0.1,0,0.2c0,0,0.1,0.1,0.1,0.1c0,0,1-0.3,1-1.3l0-0.6c0-0.5,0-0.7,0.3-1.1c0,0,0.3-0.2,0.5,0.1
	c0.1,0.1,0.5,0.7,2.5,0.4h0v0c-0.1,0.2-0.3,0.5-0.4,0.6c0,0-0.1,0.1-0.1,0.2v0c0,0.1,0.1,0.1,0.2,0.2c0.3,0,2.5,0.1,4.4-0.8
	c0,0.1-0.1,0.4-0.2,0.6c-0.1,0.1-0.1,0.1,0,0.2c0,0.1,0.1,0.1,0.2,0.1c0.2,0,2.1-0.5,4-2.8l0,0c0,0.1,0.2,0.4,0.4,0.7
	c0.1,0.1,0.2,0.2,0.3,0.1c0,0,0.1,0,1-1.2c0,0,0,0,0.1,0.1c0.1,0.1,1,1.9,1.5,3c0,0,0.5,0.8,1.1,0.8l0.4,0c0.3,0,0.4,0,0.6,0.1
	l0.3,0.2c0.2,0.1,0.4,0.3,0.7,0.4c-2.1-0.2-4.2-0.3-6.4-0.3C417.9,278.7,412,279.3,406.7,280.6L406.7,280.6L406.7,280.6z
	 M452.7,286.2c0.4,0.2,0.7,0.4,1.1,0.6c5.4,3.3,8.3,7.3,8.3,11.5c0,5-4,9.6-11.3,13.1c-7.2,3.4-16.7,5.3-26.8,5.3
	c-10.1,0-19.6-1.9-26.8-5.3c-7.3-3.5-11.3-8.1-11.3-13.1c0-3.8,2.3-7.5,6.7-10.5c1.3-0.9,2.9-1.8,4.6-2.6c0.2-0.1,0.4-0.2,0.5-0.2
	c7.1-3.3,16.4-5.1,26.2-5.1c10.1,0,19.6,1.9,26.8,5.3C451.4,285.5,452,285.8,452.7,286.2 M431.5,279c0.4-0.1,0.7-0.4,0.7-0.4
	s0,0,0.1,0l0.3,0.2l0.5,0.3C432.5,279.1,432,279.1,431.5,279 M438,277.9c-0.1,0.1-0.3,0.3-0.9-0.1l-7.4-5.5l-0.2-0.2c0,0,0,0,0-0.1
	l0.1,0l0.4,0.2l7.6,4.8c0,0,0.4,0.3,0.5,0.5l0,0l0,0.1C438.1,277.8,438.1,277.8,438,277.9 M440.7,276.4l0,0.1
	c-0.1,0.2-0.4,0.3-0.6,0.3H440l-0.2-0.1l-0.2-0.1l-5.8-3.3l-3.4-2l-0.1-0.1c0,0,0,0,0-0.1c0,0,0,0,0.1,0l0.2,0.1l10,4.9l0,0.1
	L440.7,276.4 M442.6,275.3c-0.1,0.2-0.4,0.4-0.6,0.3l-0.1,0h0l-11.2-5.2l0-0.1l0.1-0.1l9.6,3.7l2.4,0.9c0,0,0,0,0,0
	C442.7,275,442.6,275.1,442.6,275.3 M443.4,273.4L443.4,273.4c0.1,0,0.2,0.1,0.3,0.3c0,0.1,0,0.2,0,0.3c-0.2,0.2-0.5,0.1-0.5,0.1
	l-11.5-4.3l-0.2-0.1c0,0,0,0,0,0c0,0,0-0.1,0.1-0.1l0.2,0L443.4,273.4L443.4,273.4z M432.7,263c-3.1,2.2-9.3,3-10.6,3
	c-1.3,0-2.3,1.6-4.2,2.9c-1.9,1.4-3.9,1-3.9,1c0.5-0.7,0.4-1.7,0.4-1.7c-0.5,0.9-1.4,1.6-2.4,1.9c-0.8,0.2-1.1,0.2-2.2,0.2
	c-1,0-1.8,0.4-2.3,0.5c-0.5,0.1-1.3-0.1-1.3-0.1c0.3-0.2,0.9-0.4,1.2-0.4c0.3,0,1.3-0.3,1.3-0.3c-1.1-0.3-2.6,0.3-2.6,0.3
	c-0.8,0.3-1.2,0-1.2,0c-1.1,0.3-1,1.2-1,1.2s-0.4-0.6-0.4-1.6c0-1,2.3-2.1,2.3-2.1c1.2-0.2,1.8,0.4,1.8,0.4c0.3,0.6,0.8,0.9,1.2,0.5
	c0.4-0.3,0.5-0.8,0.8-0.8c0.3,0,0.6,0,0.6,0s0.4-0.3,0.4-0.3c0-0.1-0.1-0.1-0.1-0.1s-0.6,0.2-2.3,0.2c-1.7,0.1-2.3-1-2.3-1
	c3.1-1,6.2-3.9,9.5-4.6c3.3-0.7,6.8-0.1,6.8-0.1c-0.9,1.1-1.2,1.9-1.2,1.9c7.6-5,12.3-6.5,12.3-6.5c3.2-5.8,6.7-8.4,9.5-10.2
	c2.7-1.8,6.1-6,6.3-6.5c0.3-0.6,0.5-0.6,0.5-0.6c-0.1,2.1-2.1,4.3-3.8,6c-1.7,1.6-4.2,3.4-4.2,3.4c-0.2,0.2,0,0.3,0,0.3
	s0.5,0.1,0.6,0.1c0.1,0,0.1,0.2,0.1,0.2c-0.5,0.8-1.5,1.5-1.6,1.6c-0.1,0.2,0,0.2,0,0.2s0.2,0,0.4,0.1c0.2,0.1,0,0.3,0,0.3l-1.6,1.5
	c-0.1,0.1-0.1,0.2-0.1,0.2s0.7-0.1,0.8-0.1c0.1,0,0.1,0.2,0.1,0.2c-0.3,0.8-1.3,1.7-1.4,1.8c-0.1,0.2-0.1,0.2-0.1,0.2s0.7,0,0.8,0
	c0.1,0,0,0.1,0,0.1c-1.3,1.9-3.9,3.4-3.9,3.4s0.8,0.3,0.8,0.4c0.1,0.1,0,0.1,0,0.1c-1.7,1.2-4.4,2.1-4.4,2.1s0.6,0.3,0.6,0.4
	C432.8,262.8,432.7,263,432.7,263 M435.8,265c-1,0.1-2.6,0-2.6,0c-0.1,0-0.2-0.1-0.2-0.2c0-0.1,0.1-0.2,0.2-0.2c0,0,1.6,0,2.6,0
	c0.1,0,0.2,0.1,0.2,0.2c0,0,0,0,0,0C436,264.9,435.9,265,435.8,265 M441.3,262.1L441.3,262.1l-0.2,0.1c-0.6,0.2-1.1,0.4-1.7,0.6
	c-0.5,0.1-1,0.2-1.4,0.3c-0.2,0-0.4,0.1-0.5,0.1c-0.8,0.1-1.5,0.2-2.2,0.3c-0.7,0.1-0.1-0.3,0-0.4c0,0,0.1,0,0.1,0
	c0.7-0.1,2.8-0.3,6-1C441.3,261.9,441.4,262,441.3,262.1 M437,261.8C436.9,261.8,436.9,261.7,437,261.8l0.5-0.5
	c0.2-0.2,0.4-0.2,0.4-0.2c0.8-0.1,3.3-0.6,6.8-1.7c0,0,0.1,0,0,0.1l-0.1,0.1c-0.2,0.2-1,0.5-2.2,0.9
	C440.7,261,438.9,261.4,437,261.8 M450.4,259.3c0,0-0.1,0-0.1,0.1c-0.3,0.1-2.9,1.4-7.3,2.6c0.3-0.2,0.6-0.4,0.9-0.7
	c1.8-0.5,3.9-1.2,6.3-2c0.1,0,0.2,0,0.2-0.1C450.5,259.1,450.5,259.2,450.4,259.3 M456,255.1c-0.1,0.1-0.5,0.3-1.3,0.7
	c-0.4,0.2-0.9,0.4-1.4,0.7c-0.2,0.1-0.4,0.2-0.7,0.3c-1.4,0.6-3.1,1.3-5,2c-0.6,0.2-1.2,0.4-1.8,0.7c0.1-0.2,0.3-0.4,0.4-0.5
	c0.6-0.2,1.1-0.4,1.7-0.6c2.1-0.7,4.3-1.5,6.7-2.6C455.1,255.4,455.6,255.2,456,255.1C456,255,456.2,254.8,456,255.1 M458.8,251.7
	L458.8,251.7L458.8,251.7L458.8,251.7L458.8,251.7L458.8,251.7L458.8,251.7c0,0.1,0,0.1,0,0.2c-0.1,0.1-0.5,0.3-1.2,0.7l-2,1.1
	l-0.8,0.4c-1.3,0.7-2.7,1.3-4.1,1.9c-1,0.4-2.1,0.9-3.3,1.3c0.2-0.3,0.3-0.6,0.5-0.9c0.8-0.3,1.5-0.5,2.3-0.8
	c2.1-0.8,4.3-1.9,7.1-3.3c0.3-0.2,1.3-0.6,1.5-0.7C458.7,251.5,458.7,251.6,458.8,251.7L458.8,251.7L458.8,251.7 M463.2,247
	c0,0.4-4.3,2.9-8.1,4.8l-2.7,1.3c-1.4,0.6-2.7,1.2-4,1.7c0.2-0.4,0.3-0.9,0.4-1.3c4.9-1.7,9.6-4,14.1-6.7c0,0,0.2-0.1,0.3-0.1
	C463.2,246.8,463.2,246.8,463.2,247 M465.1,242.6c-0.1,0.4-7.9,6-15.9,9.4c0.1-0.5,0.1-0.9,0.2-1.3c5.4-2,10.5-4.8,15.1-8.2
	c0.3-0.2,0.4-0.3,0.6-0.2C465.2,242.3,465.1,242.5,465.1,242.6 M466.8,237.5c-0.3,0.4-8.6,7.8-17.4,11.6c0-0.2,0-0.3,0-0.5
	c0-0.2,0-0.4,0-0.5c9.2-3.8,17.1-10.9,17.1-11l0,0c0.2-0.1,0.3-0.2,0.4-0.1C467.1,237.2,467,237.3,466.8,237.5 M-90.1,295.3
	c0-5.3-3.1-5.4-5.4-5.4h-2.7v-3.4c4.3,0.2,8.8,0.5,14,0.5c5.2,0,9.8-0.2,14.3-0.5v3.4h-1.4c-2.2,0-5.4,0.2-5.4,5.4v15.6
	c-4.4,1.3-14.9,3.6-23.1,3.6c-18,0-31.4-10.7-31.4-30.2c0-15.1,9.3-30.2,31.8-30.2c7.8,0,16.1,1.9,22.8,4.1l-0.5,16.4h-5.4
	c-0.1-9.5-6.6-15.2-15.5-15.2c-14.6,0-18.8,11-18.8,24.9c0,13.4,7,25.3,19.9,25.3c2.5,0,5-0.5,6.8-0.9L-90.1,295.3L-90.1,295.3z
	 M-63.5,263.6c0-3.4-0.5-5-6.2-5.1v-3.4c4,0.2,8.5,0.5,13,0.5c4.4,0,9-0.2,13.5-0.5v3.4c-6.2,0.1-6.7,1.7-6.7,5.1v31
	c0,9.2,5.6,12.6,13.7,12.6c10.9,0,14.5-5.7,14.5-17.2v-26.4c0-3.4-0.5-5-6.8-5.1v-3.4c2.8,0.2,5.9,0.5,9.1,0.5
	c2.6,0,5.4-0.2,7.9-0.5v3.4c-4.6,0.1-5.1,1.7-5.1,5.1v27c0,19-11.3,23.9-22.8,23.9c-14.3,0-24.1-4-24.1-21L-63.5,263.6L-63.5,263.6z
	 M-7.8,310c6.7-0.1,7.2-1.7,7.2-5.1v-41.3c0-3.4-0.5-5-6.8-5.1v-3.4c4.5,0.2,9.1,0.5,13.5,0.5c4.4,0,9-0.2,14.9-0.5v3.4
	c-7.6,0.1-8.2,1.7-8.2,5.1v42.1c0,2.4,0.1,3.3,4.6,3.3c9.4,0,17.6-1.8,19.7-12.7h3.8c-1.3,5.6-2.5,11.3-3.3,17
	c-6.5-0.2-13.8-0.5-22-0.5c-8.7,0-16.6,0.2-23.5,0.5V310z M42.5,310c6.7-0.1,7.2-1.7,7.2-5.1v-41.3c0-3.4-0.5-5-6.7-5.1v-3.4
	c7.1,0.2,14.3,0.5,21.5,0.5c7.3,0,14.5-0.2,21.8-0.5c0,4.8,0.3,11,0.6,14.7h-3.9c-0.5-10-5.9-10.3-14-10.3c-3.5,0-5.8,0-5.8,2.5
	v20.4h6.7c6.2,0,8.4-0.8,8.4-7.5h3.3c-0.3,3.4-0.5,6.8-0.5,10.2c0,3.9,0.2,7.7,0.5,10.3h-3.3v-2.4c-0.1-5.7-2.6-6.7-7.8-6.7h-7.3
	v18.6c0,3.4,0.5,5,8.5,5.1v3.4c-5.1-0.2-10.6-0.5-15-0.5c-4.3,0-9.3,0.2-14.2,0.5L42.5,310L42.5,310z M123.7,261
	c-1.5-2-4-2.5-5.7-2.5h-0.9v-3.4c3.3,0.2,6.7,0.5,9.9,0.5c3.3,0,6.7-0.2,10.1-0.5l28.7,37h0.2v-28.6c0-3.4-0.5-5-7.4-5.1v-3.4
	c3.6,0.2,7.2,0.5,10,0.5c2.8,0,6.4-0.2,8.4-0.5v3.4c-5.3,0.1-5.8,1.7-5.8,5.1v49.8h-6.4L129,266.7h-0.2v38.2c0,3.4,0.5,5,7.5,5.1
	v3.4c-3.6-0.2-7.2-0.5-10-0.5s-6.4,0.2-10,0.5V310c6.9-0.1,7.5-1.7,7.5-5.1L123.7,261L123.7,261z M180.3,310
	c6.9-0.1,7.5-1.7,7.5-5.1v-41.3c0-3.4-0.5-5-6.8-5.1v-3.4c7.1,0.2,14.3,0.5,21.5,0.5c7.3,0,14.5-0.2,21.8-0.5c0,4.8,0.3,11,0.6,14.9
	h-3.9c-0.5-10.2-5.9-10.5-14-10.5h-3.2c-2,0-2.6,0.7-2.6,2.4v19.5h6.2c6.2,0,8.4-1.6,8.4-7.8h3.3c-0.3,3.2-0.5,6.5-0.5,9.7
	c0,3.9,0.2,7.7,0.5,10.2h-3.3c0-6.7-2.2-8.3-8.4-8.3h-6.2v20.1c0,2.3,1.1,3.1,3.3,3.1h3.4c9,0,15.6-1.3,17.5-11.1h3.7
	c-1.4,5.3-2.2,10.6-3,15.9c-7.5-0.2-15-0.5-22.5-0.5c-7.8,0-15.6,0.2-23.4,0.5L180.3,310L180.3,310z M227.7,255.1
	c4,0.2,7.9,0.5,11.9,0.5c3.8,0,7.5-0.2,11.3-0.5v3.4h-1.6c-2.1,0.3-2.2,1.3-2.2,2.3c0,0.9,0.4,2.7,0.9,4.6l9.4,33.1h0.2l8.5-27.5
	l-2-8c-1-4-1.6-4.5-5-4.5h-1.8v-3.4c4,0.2,8.2,0.5,12.2,0.5c4.4,0,8.9-0.2,13.4-0.5v3.4h-1.4c-2.7,0-4.2,0.7-4.2,2.2
	c0,1.3,0.4,2.8,1,5.8l7.3,33.3h0.2l10.9-34.1c0.6-2,1.1-3.5,1.1-5.1c0-1.8-1.7-2.2-4.3-2.2h-1.9v-3.4c3.1,0.2,6.8,0.5,9.2,0.5
	c2.6,0,5.2-0.2,7.8-0.5v3.4c-3.6,0-5.3,2.7-6.6,6.7l-16,48.7h-8.7l-8.8-33.5h-0.2l-10.9,33.5h-8.7l-14.8-49
	c-1.7-5.5-2.1-6.2-6.4-6.2L227.7,255.1L227.7,255.1z M345.1,272.3h-4.7c-0.2-8.2-2.6-13.4-11.9-13.4c-4.5,0-8.9,1.9-8.9,7.7
	c0,11.7,29.3,7.4,29.3,28.6c0,13.6-10.2,19.2-22.1,19.2c-6.1,0-13.8-1.9-19.1-5.1c0.3-4.7,0.4-11.5,0.4-16.2h5.6
	c0,8.8,3.5,16,12.6,16c5.7,0,10.9-2.3,10.9-7.7c0-13.7-28.8-9.4-28.8-30.1c0-11,8.1-17.3,20.3-17.3c5.7,0,11.5,1.2,17.1,2.3
	L345.1,272.3L345.1,272.3z"/>
</svg>
